%FSTAX23Y23*%
%MOIN*%
%SFA1B1*%

%IPPOS*%
%ADD24R,0.023622X0.072835*%
%ADD45R,0.068898X0.049212*%
%ADD114O,0.021654X0.080709*%
%ADD115O,0.080709X0.021654*%
%ADD116R,0.062992X0.082677*%
%ADD117R,0.053150X0.015748*%
%ADD118R,0.074803X0.074803*%
%LNnixie_board_v2.0-1*%
%LPD*%
G54D24*
X01647Y01787D03*
X01765Y01662D03*
X01844D03*
X01922D03*
X01804Y01787D03*
X01725D03*
X01883D03*
X01686Y01662D03*
G54D45*
X04777Y03119D03*
Y0301D03*
X0241Y03119D03*
Y0301D03*
X01807Y03119D03*
Y0301D03*
X03902Y03119D03*
Y0301D03*
X03245D03*
Y03119D03*
X03135Y0301D03*
Y03119D03*
G54D114*
X02977Y02152D03*
X03009D03*
X0304D03*
X03072D03*
X03103D03*
X03135D03*
X03166D03*
X03197D03*
X03229D03*
X0326D03*
X03292D03*
Y01647D03*
X0326D03*
X03229D03*
X03197D03*
X03166D03*
X03135D03*
X03103D03*
X03072D03*
X0304D03*
X03009D03*
X02977D03*
G54D115*
X03387Y02057D03*
Y02025D03*
Y01994D03*
Y01962D03*
Y01931D03*
Y019D03*
Y01868D03*
Y01837D03*
Y01805D03*
Y01774D03*
Y01742D03*
X02882D03*
Y01774D03*
Y01805D03*
Y01837D03*
Y01868D03*
Y019D03*
Y01931D03*
Y01962D03*
Y01994D03*
Y02025D03*
Y02057D03*
G54D116*
X0129Y04024D03*
Y04275D03*
G54D117*
X01295Y0415D03*
Y04201D03*
Y04175D03*
Y04124D03*
Y04098D03*
G54D118*
X0119Y04301D03*
Y04197D03*
Y04102D03*
Y03998D03*
M02*