%FSTAX23Y23*%
%MOIN*%
%SFA1B1*%

%IPPOS*%
%ADD12C,0.023622*%
%ADD13C,0.015748*%
%ADD16R,0.027559X0.037401*%
%ADD17R,0.051181X0.078740*%
%ADD18R,0.078740X0.078740*%
%ADD19R,0.173228X0.092520*%
%ADD20R,0.047244X0.116142*%
%ADD21R,0.222441X0.263779*%
%ADD22R,0.157480X0.078740*%
%ADD23R,0.084645X0.098425*%
%ADD24R,0.023622X0.072835*%
%ADD25O,0.064960X0.015748*%
%ADD26R,0.023622X0.019685*%
%ADD27R,0.062992X0.039370*%
%ADD28R,0.037401X0.027559*%
%ADD29O,0.049606X0.014173*%
%ADD30O,0.059055X0.023622*%
%ADD31R,0.031496X0.025591*%
%ADD32R,0.019685X0.023622*%
%ADD33R,0.037401X0.055118*%
%ADD34R,0.055118X0.041339*%
%ADD35O,0.055118X0.015748*%
%ADD36R,0.049212X0.068898*%
%ADD37R,0.031496X0.011811*%
%ADD38R,0.058661X0.094488*%
%ADD39R,0.098425X0.084645*%
%ADD40O,0.019685X0.015748*%
%ADD41O,0.015748X0.019685*%
%ADD42R,0.104330X0.104330*%
%ADD43R,0.151575X0.216535*%
%ADD44R,0.096457X0.068898*%
%ADD45R,0.068898X0.049212*%
%ADD46R,0.127952X0.084645*%
%ADD47R,0.039370X0.084645*%
%ADD48R,0.165354X0.125984*%
%ADD49C,0.019685*%
%ADD50C,0.011811*%
%ADD96C,0.039370*%
%ADD97R,0.029527X0.029527*%
%ADD98C,0.059055*%
%ADD99C,0.078740*%
%ADD100C,0.039370*%
%ADD101C,0.059055*%
%ADD102C,0.027559*%
%ADD103C,0.118110*%
%ADD104C,0.196850*%
%ADD105C,0.098425*%
%ADD106C,0.275590*%
%ADD107C,0.098425*%
%ADD108C,0.068898*%
%ADD109O,0.062992X0.047244*%
%ADD110C,0.060000*%
%ADD111C,0.229921*%
%ADD112C,0.027559*%
%ADD113C,0.050000*%
%LNnixie_board_v2.0-1*%
%LPD*%
G36*
X05157Y01338D02*
D01*
X01102*
Y0339*
X01103Y03393*
X05157*
Y01338*
G37*
G36*
X03425Y04944D02*
Y04555D01*
X03399Y0453*
X02879*
X0285Y04559*
Y0474*
X02849Y04775*
X02853Y04779*
X02924*
Y04797*
X02961Y04835*
X02964Y0484*
X02966Y04846*
Y04963*
X03213*
Y0493*
X03204*
Y04891*
X03254*
Y0493*
X03245*
Y04963*
X03405*
X03425Y04944*
G37*
G36*
X04266Y04776D02*
X04264Y04772D01*
X04223*
Y04727*
Y04683*
X04276*
X04281Y04681*
X04629Y04333*
Y04091*
X04619Y04081*
X04434*
X04423Y04092*
Y04233*
X04421*
X04379Y04275*
X04028*
X04006Y04297*
Y04759*
X04033Y04786*
X04256*
X04266Y04776*
G37*
G36*
X02393Y03547D02*
X02414Y0352D01*
X02405*
X02389Y03542*
X02373Y0352*
X02365*
X02385Y03547*
X02367Y03572*
X02375*
X02389Y03553*
X02403Y03572*
X02411*
X02393Y03547*
G37*
G36*
X02293Y0352D02*
X02286D01*
X02279Y0357*
X02253Y0352*
X02251*
X02226Y03571*
X02219Y0352*
X02212*
X02222Y03591*
X02224*
X02252Y03532*
X02281Y03591*
X02282*
X02293Y0352*
G37*
G36*
X02332Y03573D02*
X02332Y03573D01*
X02333Y03573*
X02334Y03573*
X02336Y03573*
X02338Y03572*
X0234Y03572*
X02342Y03571*
X02342*
X02342Y03571*
X02342Y0357*
X02343Y0357*
X02343Y0357*
X02344Y0357*
X02345Y03569*
X02346Y03567*
X02348Y03566*
X0235Y03564*
X02351Y03562*
Y03572*
X02358*
Y0352*
X02351*
Y03529*
X02351Y03528*
X02351Y03528*
X02351Y03528*
X0235Y03528*
X02349Y03527*
X02348Y03526*
X02347Y03524*
X02345Y03523*
X02343Y03522*
X02342Y03521*
X02341*
X02341Y03521*
X02341Y0352*
X02341Y0352*
X0234Y0352*
X0234Y0352*
X02339Y0352*
X02338Y0352*
X02336Y03519*
X02334Y03519*
X02332Y03518*
X0233Y03518*
X02329*
X02329Y03518*
X02328Y03518*
X02327Y03518*
X02326Y03519*
X02325Y03519*
X02323Y03519*
X02322Y0352*
X0232Y0352*
X02319Y03521*
X02317Y03522*
X02316Y03523*
X02314Y03524*
X02312Y03525*
X02311Y03526*
X02311Y03526*
X02311Y03527*
X0231Y03527*
X0231Y03528*
X02309Y03528*
X02308Y03529*
X02308Y0353*
X02307Y03532*
X02306Y03533*
X02306Y03535*
X02305Y03536*
X02304Y03538*
X02304Y0354*
X02303Y03542*
X02303Y03544*
X02303Y03546*
Y03546*
Y03546*
X02303Y03547*
X02303Y03548*
X02303Y03549*
X02303Y0355*
X02304Y03551*
X02304Y03553*
X02304Y03554*
X02305Y03556*
X02306Y03557*
X02306Y03559*
X02307Y03561*
X02308Y03562*
X0231Y03564*
X02311Y03565*
X02311Y03565*
X02311Y03566*
X02312Y03566*
X02312Y03567*
X02313Y03567*
X02314Y03568*
X02315Y03569*
X02316Y03569*
X02318Y0357*
X02319Y03571*
X02321Y03572*
X02322Y03572*
X02324Y03573*
X02326Y03573*
X02328Y03573*
X0233Y03573*
X02331*
X02332Y03573*
G37*
G36*
X02205Y03584D02*
X02189D01*
Y0352*
X02182*
Y03584*
X02166*
Y03591*
X02205*
Y03584*
G37*
%LNnixie_board_v2.0-2*%
%LPC*%
G36*
X0499Y03333D02*
Y03214D01*
X0511*
X05109Y03228*
X05105Y03247*
X05097Y03265*
X05087Y03282*
X05074Y03297*
X05059Y0331*
X05042Y0332*
X05024Y03328*
X05005Y03332*
X0499Y03333*
G37*
G36*
X01289D02*
Y03214D01*
X01408*
X01407Y03228*
X01403Y03247*
X01395Y03265*
X01385Y03282*
X01372Y03297*
X01357Y0331*
X0134Y0332*
X01322Y03328*
X01303Y03332*
X01289Y03333*
G37*
G36*
X01279D02*
X01264Y03332D01*
X01245Y03328*
X01227Y0332*
X0121Y0331*
X01195Y03297*
X01182Y03282*
X01172Y03265*
X01164Y03247*
X0116Y03228*
X01159Y03214*
X01279*
Y03333*
G37*
G36*
X0498D02*
X04966Y03332D01*
X04947Y03328*
X04929Y0332*
X04912Y0331*
X04897Y03297*
X04884Y03282*
X04874Y03265*
X04866Y03247*
X04862Y03228*
X04861Y03214*
X0498*
Y03333*
G37*
G36*
X0511Y03204D02*
X0499D01*
Y03084*
X05005Y03085*
X05024Y03089*
X05042Y03097*
X05059Y03107*
X05074Y0312*
X05087Y03135*
X05097Y03152*
X05105Y0317*
X05109Y03189*
X0511Y03204*
G37*
G36*
X01408D02*
X01289D01*
Y03084*
X01303Y03085*
X01322Y03089*
X0134Y03097*
X01357Y03107*
X01372Y0312*
X01385Y03135*
X01395Y03152*
X01403Y0317*
X01407Y03189*
X01408Y03204*
G37*
G36*
X01279D02*
X01159D01*
X0116Y03189*
X01164Y0317*
X01172Y03152*
X01182Y03135*
X01195Y0312*
X0121Y03107*
X01227Y03097*
X01245Y03089*
X01264Y03085*
X01279Y03084*
Y03204*
G37*
G36*
X0498D02*
X04861D01*
X04862Y03189*
X04866Y0317*
X04874Y03152*
X04884Y03135*
X04897Y0312*
X04912Y03107*
X04929Y03097*
X04947Y03089*
X04966Y03085*
X0498Y03084*
Y03204*
G37*
G36*
X0462Y02985D02*
X04605Y02983D01*
X04592Y02977*
X0458Y02968*
X04571Y02957*
X04566Y02943*
X04564Y02929*
X04566Y02914*
X04571Y02901*
X0458Y02889*
X04592Y02881*
X04605Y02875*
X0462Y02873*
X04634Y02875*
X04647Y02881*
X04659Y02889*
X04668Y02901*
X04673Y02914*
X04675Y02929*
X04673Y02943*
X04668Y02957*
X04659Y02968*
X04647Y02977*
X04634Y02983*
X0462Y02985*
G37*
G36*
X03745D02*
X0373Y02983D01*
X03717Y02977*
X03705Y02968*
X03696Y02957*
X03691Y02943*
X03689Y02929*
X03691Y02914*
X03696Y02901*
X03705Y02889*
X03717Y02881*
X0373Y02875*
X03745Y02873*
X03759Y02875*
X03772Y02881*
X03784Y02889*
X03793Y02901*
X03798Y02914*
X038Y02929*
X03798Y02943*
X03793Y02957*
X03784Y02968*
X03772Y02977*
X03759Y02983*
X03745Y02985*
G37*
G36*
X02525D02*
X0251Y02983D01*
X02497Y02977*
X02485Y02968*
X02476Y02957*
X02471Y02943*
X02469Y02929*
X02471Y02914*
X02476Y02901*
X02485Y02889*
X02497Y02881*
X0251Y02875*
X02525Y02873*
X02539Y02875*
X02552Y02881*
X02564Y02889*
X02573Y02901*
X02578Y02914*
X0258Y02929*
X02578Y02943*
X02573Y02957*
X02564Y02968*
X02552Y02977*
X02539Y02983*
X02525Y02985*
G37*
G36*
X0165D02*
X01635Y02983D01*
X01622Y02977*
X0161Y02968*
X01601Y02957*
X01596Y02943*
X01594Y02929*
X01596Y02914*
X01601Y02901*
X0161Y02889*
X01622Y02881*
X01635Y02875*
X0165Y02873*
X01664Y02875*
X01677Y02881*
X01689Y02889*
X01698Y02901*
X01703Y02914*
X01705Y02929*
X01703Y02943*
X01698Y02957*
X01689Y02968*
X01677Y02977*
X01664Y02983*
X0165Y02985*
G37*
G36*
X04777Y02945D02*
X04763Y02943D01*
X04749Y02938*
X04738Y02929*
X04729Y02917*
X04723Y02904*
X04721Y02889*
X04723Y02875*
X04729Y02862*
X04738Y0285*
X04749Y02841*
X04763Y02836*
X04777Y02834*
X04791Y02836*
X04805Y02841*
X04816Y0285*
X04825Y02862*
X04831Y02875*
X04833Y02889*
X04831Y02904*
X04825Y02917*
X04816Y02929*
X04805Y02938*
X04791Y02943*
X04777Y02945*
G37*
G36*
X04462D02*
X04448Y02943D01*
X04434Y02938*
X04423Y02929*
X04414Y02917*
X04408Y02904*
X04406Y02889*
X04408Y02875*
X04414Y02862*
X04423Y0285*
X04434Y02841*
X04448Y02836*
X04462Y02834*
X04476Y02836*
X0449Y02841*
X04501Y0285*
X0451Y02862*
X04516Y02875*
X04518Y02889*
X04516Y02904*
X0451Y02917*
X04501Y02929*
X0449Y02938*
X04476Y02943*
X04462Y02945*
G37*
G36*
X03902D02*
X03888Y02943D01*
X03874Y02938*
X03863Y02929*
X03854Y02917*
X03848Y02904*
X03846Y02889*
X03848Y02875*
X03854Y02862*
X03863Y0285*
X03874Y02841*
X03888Y02836*
X03902Y02834*
X03916Y02836*
X0393Y02841*
X03941Y0285*
X0395Y02862*
X03956Y02875*
X03958Y02889*
X03956Y02904*
X0395Y02917*
X03941Y02929*
X0393Y02938*
X03916Y02943*
X03902Y02945*
G37*
G36*
X03587D02*
X03573Y02943D01*
X03559Y02938*
X03548Y02929*
X03539Y02917*
X03533Y02904*
X03531Y02889*
X03533Y02875*
X03539Y02862*
X03548Y0285*
X03559Y02841*
X03573Y02836*
X03587Y02834*
X03601Y02836*
X03615Y02841*
X03626Y0285*
X03635Y02862*
X03641Y02875*
X03643Y02889*
X03641Y02904*
X03635Y02917*
X03626Y02929*
X03615Y02938*
X03601Y02943*
X03587Y02945*
G37*
G36*
X02682D02*
X02668Y02943D01*
X02654Y02938*
X02643Y02929*
X02634Y02917*
X02628Y02904*
X02626Y02889*
X02628Y02875*
X02634Y02862*
X02643Y0285*
X02654Y02841*
X02668Y02836*
X02682Y02834*
X02696Y02836*
X0271Y02841*
X02721Y0285*
X0273Y02862*
X02736Y02875*
X02738Y02889*
X02736Y02904*
X0273Y02917*
X02721Y02929*
X0271Y02938*
X02696Y02943*
X02682Y02945*
G37*
G36*
X02367D02*
X02353Y02943D01*
X02339Y02938*
X02328Y02929*
X02319Y02917*
X02313Y02904*
X02311Y02889*
X02313Y02875*
X02319Y02862*
X02328Y0285*
X02339Y02841*
X02353Y02836*
X02367Y02834*
X02381Y02836*
X02395Y02841*
X02406Y0285*
X02415Y02862*
X02421Y02875*
X02423Y02889*
X02421Y02904*
X02415Y02917*
X02406Y02929*
X02395Y02938*
X02381Y02943*
X02367Y02945*
G37*
G36*
X01807D02*
X01793Y02943D01*
X01779Y02938*
X01768Y02929*
X01759Y02917*
X01753Y02904*
X01751Y02889*
X01753Y02875*
X01759Y02862*
X01768Y0285*
X01779Y02841*
X01793Y02836*
X01807Y02834*
X01821Y02836*
X01835Y02841*
X01846Y0285*
X01855Y02862*
X01861Y02875*
X01863Y02889*
X01861Y02904*
X01855Y02917*
X01846Y02929*
X01835Y02938*
X01821Y02943*
X01807Y02945*
G37*
G36*
X01492D02*
X01478Y02943D01*
X01464Y02938*
X01453Y02929*
X01444Y02917*
X01438Y02904*
X01436Y02889*
X01438Y02875*
X01444Y02862*
X01453Y0285*
X01464Y02841*
X01478Y02836*
X01492Y02834*
X01506Y02836*
X0152Y02841*
X01531Y0285*
X0154Y02862*
X01546Y02875*
X01548Y02889*
X01546Y02904*
X0154Y02917*
X01531Y02929*
X0152Y02938*
X01506Y02943*
X01492Y02945*
G37*
G36*
X04846Y02807D02*
X04831Y02805D01*
X04818Y028*
X04807Y02791*
X04798Y0278*
X04792Y02766*
X0479Y02752*
X04792Y02737*
X04798Y02724*
X04807Y02712*
X04818Y02703*
X04831Y02698*
X04846Y02696*
X0486Y02698*
X04874Y02703*
X04885Y02712*
X04894Y02724*
X049Y02737*
X04902Y02752*
X049Y02766*
X04894Y0278*
X04885Y02791*
X04874Y028*
X0486Y02805*
X04846Y02807*
G37*
G36*
X04393D02*
X04379Y02805D01*
X04365Y028*
X04354Y02791*
X04345Y0278*
X04339Y02766*
X04337Y02752*
X04339Y02737*
X04345Y02724*
X04354Y02712*
X04365Y02703*
X04379Y02698*
X04393Y02696*
X04408Y02698*
X04421Y02703*
X04433Y02712*
X04441Y02724*
X04447Y02737*
X04449Y02752*
X04447Y02766*
X04441Y0278*
X04433Y02791*
X04421Y028*
X04408Y02805*
X04393Y02807*
G37*
G36*
X03971D02*
X03956Y02805D01*
X03943Y028*
X03932Y02791*
X03923Y0278*
X03917Y02766*
X03915Y02752*
X03917Y02737*
X03923Y02724*
X03932Y02712*
X03943Y02703*
X03956Y02698*
X03971Y02696*
X03985Y02698*
X03999Y02703*
X0401Y02712*
X04019Y02724*
X04025Y02737*
X04027Y02752*
X04025Y02766*
X04019Y0278*
X0401Y02791*
X03999Y028*
X03985Y02805*
X03971Y02807*
G37*
G36*
X03518D02*
X03504Y02805D01*
X0349Y028*
X03479Y02791*
X0347Y0278*
X03464Y02766*
X03462Y02752*
X03464Y02737*
X0347Y02724*
X03479Y02712*
X0349Y02703*
X03504Y02698*
X03518Y02696*
X03533Y02698*
X03546Y02703*
X03558Y02712*
X03566Y02724*
X03572Y02737*
X03574Y02752*
X03572Y02766*
X03566Y0278*
X03558Y02791*
X03546Y028*
X03533Y02805*
X03518Y02807*
G37*
G36*
X02751D02*
X02736Y02805D01*
X02723Y028*
X02712Y02791*
X02703Y0278*
X02697Y02766*
X02695Y02752*
X02697Y02737*
X02703Y02724*
X02712Y02712*
X02723Y02703*
X02736Y02698*
X02751Y02696*
X02765Y02698*
X02779Y02703*
X0279Y02712*
X02799Y02724*
X02805Y02737*
X02807Y02752*
X02805Y02766*
X02799Y0278*
X0279Y02791*
X02779Y028*
X02765Y02805*
X02751Y02807*
G37*
G36*
X02298D02*
X02284Y02805D01*
X0227Y028*
X02259Y02791*
X0225Y0278*
X02244Y02766*
X02242Y02752*
X02244Y02737*
X0225Y02724*
X02259Y02712*
X0227Y02703*
X02284Y02698*
X02298Y02696*
X02313Y02698*
X02326Y02703*
X02338Y02712*
X02346Y02724*
X02352Y02737*
X02354Y02752*
X02352Y02766*
X02346Y0278*
X02338Y02791*
X02326Y028*
X02313Y02805*
X02298Y02807*
G37*
G36*
X01876D02*
X01861Y02805D01*
X01848Y028*
X01837Y02791*
X01828Y0278*
X01822Y02766*
X0182Y02752*
X01822Y02737*
X01828Y02724*
X01837Y02712*
X01848Y02703*
X01861Y02698*
X01876Y02696*
X0189Y02698*
X01904Y02703*
X01915Y02712*
X01924Y02724*
X0193Y02737*
X01932Y02752*
X0193Y02766*
X01924Y0278*
X01915Y02791*
X01904Y028*
X0189Y02805*
X01876Y02807*
G37*
G36*
X01423D02*
X01409Y02805D01*
X01395Y028*
X01384Y02791*
X01375Y0278*
X01369Y02766*
X01367Y02752*
X01369Y02737*
X01375Y02724*
X01384Y02712*
X01395Y02703*
X01409Y02698*
X01423Y02696*
X01438Y02698*
X01451Y02703*
X01463Y02712*
X01471Y02724*
X01477Y02737*
X01479Y02752*
X01477Y02766*
X01471Y0278*
X01463Y02791*
X01451Y028*
X01438Y02805*
X01423Y02807*
G37*
G36*
X03142Y02878D02*
X03127D01*
X03119Y02877*
X03112Y02874*
X03106Y02869*
X03101Y02863*
X03098Y02856*
X03097Y02848*
X03098Y0284*
X03101Y02833*
X03106Y02827*
X0311Y02823*
X03109Y02818*
X03106Y02817*
X03094Y0281*
X03083Y02801*
X03074Y0279*
X03067Y02778*
X03063Y02764*
X03061Y0275*
X03063Y02735*
X03067Y02721*
X03074Y02709*
X03083Y02698*
X03094Y02689*
X03106Y02682*
X03109Y02681*
X0311Y02676*
X03106Y02672*
X03101Y02666*
X03098Y02659*
X03097Y02651*
X03098Y02643*
X03101Y02636*
X03106Y0263*
X03112Y02625*
X03119Y02622*
X03127Y02621*
X03142*
X0315Y02622*
X03157Y02625*
X03164Y0263*
X03168Y02636*
X03171Y02643*
X03172Y02651*
X03171Y02659*
X03168Y02666*
X03164Y02672*
X03159Y02676*
X0316Y02681*
X03163Y02682*
X03175Y02689*
X03186Y02698*
X03195Y02709*
X03202Y02721*
X03206Y02735*
X03208Y0275*
X03206Y02764*
X03202Y02778*
X03195Y0279*
X03186Y02801*
X03175Y0281*
X03163Y02817*
X0316Y02818*
X03159Y02823*
X03164Y02827*
X03168Y02833*
X03171Y0284*
X03172Y02848*
X03171Y02856*
X03168Y02863*
X03164Y02869*
X03157Y02874*
X0315Y02877*
X03142Y02878*
G37*
G36*
X04846Y0263D02*
X04831Y02628D01*
X04818Y02623*
X04807Y02614*
X04798Y02602*
X04792Y02589*
X0479Y02575*
X04792Y0256*
X04798Y02547*
X04807Y02535*
X04818Y02526*
X04831Y02521*
X04846Y02519*
X0486Y02521*
X04874Y02526*
X04885Y02535*
X04894Y02547*
X049Y0256*
X04902Y02575*
X049Y02589*
X04894Y02602*
X04885Y02614*
X04874Y02623*
X0486Y02628*
X04846Y0263*
G37*
G36*
X04393D02*
X04379Y02628D01*
X04365Y02623*
X04354Y02614*
X04345Y02602*
X04339Y02589*
X04337Y02575*
X04339Y0256*
X04345Y02547*
X04354Y02535*
X04365Y02526*
X04379Y02521*
X04393Y02519*
X04408Y02521*
X04421Y02526*
X04433Y02535*
X04441Y02547*
X04447Y0256*
X04449Y02575*
X04447Y02589*
X04441Y02602*
X04433Y02614*
X04421Y02623*
X04408Y02628*
X04393Y0263*
G37*
G36*
X03971D02*
X03956Y02628D01*
X03943Y02623*
X03932Y02614*
X03923Y02602*
X03917Y02589*
X03915Y02575*
X03917Y0256*
X03923Y02547*
X03932Y02535*
X03943Y02526*
X03956Y02521*
X03971Y02519*
X03985Y02521*
X03999Y02526*
X0401Y02535*
X04019Y02547*
X04025Y0256*
X04027Y02575*
X04025Y02589*
X04019Y02602*
X0401Y02614*
X03999Y02623*
X03985Y02628*
X03971Y0263*
G37*
G36*
X03518D02*
X03504Y02628D01*
X0349Y02623*
X03479Y02614*
X0347Y02602*
X03464Y02589*
X03462Y02575*
X03464Y0256*
X0347Y02547*
X03479Y02535*
X0349Y02526*
X03504Y02521*
X03518Y02519*
X03533Y02521*
X03546Y02526*
X03558Y02535*
X03566Y02547*
X03572Y0256*
X03574Y02575*
X03572Y02589*
X03566Y02602*
X03558Y02614*
X03546Y02623*
X03533Y02628*
X03518Y0263*
G37*
G36*
X02751D02*
X02736Y02628D01*
X02723Y02623*
X02712Y02614*
X02703Y02602*
X02697Y02589*
X02695Y02575*
X02697Y0256*
X02703Y02547*
X02712Y02535*
X02723Y02526*
X02736Y02521*
X02751Y02519*
X02765Y02521*
X02779Y02526*
X0279Y02535*
X02799Y02547*
X02805Y0256*
X02807Y02575*
X02805Y02589*
X02799Y02602*
X0279Y02614*
X02779Y02623*
X02765Y02628*
X02751Y0263*
G37*
G36*
X02298D02*
X02284Y02628D01*
X0227Y02623*
X02259Y02614*
X0225Y02602*
X02244Y02589*
X02242Y02575*
X02244Y0256*
X0225Y02547*
X02259Y02535*
X0227Y02526*
X02284Y02521*
X02298Y02519*
X02313Y02521*
X02326Y02526*
X02338Y02535*
X02346Y02547*
X02352Y0256*
X02354Y02575*
X02352Y02589*
X02346Y02602*
X02338Y02614*
X02326Y02623*
X02313Y02628*
X02298Y0263*
G37*
G36*
X01876D02*
X01861Y02628D01*
X01848Y02623*
X01837Y02614*
X01828Y02602*
X01822Y02589*
X0182Y02575*
X01822Y0256*
X01828Y02547*
X01837Y02535*
X01848Y02526*
X01861Y02521*
X01876Y02519*
X0189Y02521*
X01904Y02526*
X01915Y02535*
X01924Y02547*
X0193Y0256*
X01932Y02575*
X0193Y02589*
X01924Y02602*
X01915Y02614*
X01904Y02623*
X0189Y02628*
X01876Y0263*
G37*
G36*
X01423D02*
X01409Y02628D01*
X01395Y02623*
X01384Y02614*
X01375Y02602*
X01369Y02589*
X01367Y02575*
X01369Y0256*
X01375Y02547*
X01384Y02535*
X01395Y02526*
X01409Y02521*
X01423Y02519*
X01438Y02521*
X01451Y02526*
X01463Y02535*
X01471Y02547*
X01477Y0256*
X01479Y02575*
X01477Y02589*
X01471Y02602*
X01463Y02614*
X01451Y02623*
X01438Y02628*
X01423Y0263*
G37*
G36*
X0462Y0266D02*
X04603Y02658D01*
X04587Y02653*
X04572Y02645*
X04559Y02635*
X04549Y02622*
X04541Y02607*
X04536Y02591*
X04534Y02575*
X04536Y02558*
X04541Y02542*
X04549Y02527*
X04559Y02514*
X04572Y02504*
X04587Y02496*
X04603Y02491*
X0462Y02489*
X04636Y02491*
X04652Y02496*
X04667Y02504*
X0468Y02514*
X0469Y02527*
X04698Y02542*
X04703Y02558*
X04705Y02575*
X04703Y02591*
X04698Y02607*
X0469Y02622*
X0468Y02635*
X04667Y02645*
X04652Y02653*
X04636Y02658*
X0462Y0266*
G37*
G36*
X03745D02*
X03728Y02658D01*
X03712Y02653*
X03697Y02645*
X03684Y02635*
X03674Y02622*
X03666Y02607*
X03661Y02591*
X03659Y02575*
X03661Y02558*
X03666Y02542*
X03674Y02527*
X03684Y02514*
X03697Y02504*
X03712Y02496*
X03728Y02491*
X03745Y02489*
X03761Y02491*
X03777Y02496*
X03792Y02504*
X03805Y02514*
X03815Y02527*
X03823Y02542*
X03828Y02558*
X0383Y02575*
X03828Y02591*
X03823Y02607*
X03815Y02622*
X03805Y02635*
X03792Y02645*
X03777Y02653*
X03761Y02658*
X03745Y0266*
G37*
G36*
X02525D02*
X02508Y02658D01*
X02492Y02653*
X02477Y02645*
X02464Y02635*
X02454Y02622*
X02446Y02607*
X02441Y02591*
X02439Y02575*
X02441Y02558*
X02446Y02542*
X02454Y02527*
X02464Y02514*
X02477Y02504*
X02492Y02496*
X02508Y02491*
X02525Y02489*
X02541Y02491*
X02557Y02496*
X02572Y02504*
X02585Y02514*
X02595Y02527*
X02603Y02542*
X02608Y02558*
X0261Y02575*
X02608Y02591*
X02603Y02607*
X02595Y02622*
X02585Y02635*
X02572Y02645*
X02557Y02653*
X02541Y02658*
X02525Y0266*
G37*
G36*
X0165D02*
X01633Y02658D01*
X01617Y02653*
X01602Y02645*
X01589Y02635*
X01579Y02622*
X01571Y02607*
X01566Y02591*
X01564Y02575*
X01566Y02558*
X01571Y02542*
X01579Y02527*
X01589Y02514*
X01602Y02504*
X01617Y02496*
X01633Y02491*
X0165Y02489*
X01666Y02491*
X01682Y02496*
X01697Y02504*
X0171Y02514*
X0172Y02527*
X01728Y02542*
X01733Y02558*
X01735Y02575*
X01733Y02591*
X01728Y02607*
X0172Y02622*
X0171Y02635*
X01697Y02645*
X01682Y02653*
X01666Y02658*
X0165Y0266*
G37*
G36*
X04846Y02453D02*
X04831Y02451D01*
X04818Y02446*
X04807Y02437*
X04798Y02425*
X04792Y02412*
X0479Y02397*
X04792Y02383*
X04798Y02369*
X04807Y02358*
X04818Y02349*
X04831Y02344*
X04846Y02342*
X0486Y02344*
X04874Y02349*
X04885Y02358*
X04894Y02369*
X049Y02383*
X04902Y02397*
X049Y02412*
X04894Y02425*
X04885Y02437*
X04874Y02446*
X0486Y02451*
X04846Y02453*
G37*
G36*
X04393D02*
X04379Y02451D01*
X04365Y02446*
X04354Y02437*
X04345Y02425*
X04339Y02412*
X04337Y02397*
X04339Y02383*
X04345Y02369*
X04354Y02358*
X04365Y02349*
X04379Y02344*
X04393Y02342*
X04408Y02344*
X04421Y02349*
X04433Y02358*
X04441Y02369*
X04447Y02383*
X04449Y02397*
X04447Y02412*
X04441Y02425*
X04433Y02437*
X04421Y02446*
X04408Y02451*
X04393Y02453*
G37*
G36*
X03971D02*
X03956Y02451D01*
X03943Y02446*
X03932Y02437*
X03923Y02425*
X03917Y02412*
X03915Y02397*
X03917Y02383*
X03923Y02369*
X03932Y02358*
X03943Y02349*
X03956Y02344*
X03971Y02342*
X03985Y02344*
X03999Y02349*
X0401Y02358*
X04019Y02369*
X04025Y02383*
X04027Y02397*
X04025Y02412*
X04019Y02425*
X0401Y02437*
X03999Y02446*
X03985Y02451*
X03971Y02453*
G37*
G36*
X03518D02*
X03504Y02451D01*
X0349Y02446*
X03479Y02437*
X0347Y02425*
X03464Y02412*
X03462Y02397*
X03464Y02383*
X0347Y02369*
X03479Y02358*
X0349Y02349*
X03504Y02344*
X03518Y02342*
X03533Y02344*
X03546Y02349*
X03558Y02358*
X03566Y02369*
X03572Y02383*
X03574Y02397*
X03572Y02412*
X03566Y02425*
X03558Y02437*
X03546Y02446*
X03533Y02451*
X03518Y02453*
G37*
G36*
X02751D02*
X02736Y02451D01*
X02723Y02446*
X02712Y02437*
X02703Y02425*
X02697Y02412*
X02695Y02397*
X02697Y02383*
X02703Y02369*
X02712Y02358*
X02723Y02349*
X02736Y02344*
X02751Y02342*
X02765Y02344*
X02779Y02349*
X0279Y02358*
X02799Y02369*
X02805Y02383*
X02807Y02397*
X02805Y02412*
X02799Y02425*
X0279Y02437*
X02779Y02446*
X02765Y02451*
X02751Y02453*
G37*
G36*
X02298D02*
X02284Y02451D01*
X0227Y02446*
X02259Y02437*
X0225Y02425*
X02244Y02412*
X02242Y02397*
X02244Y02383*
X0225Y02369*
X02259Y02358*
X0227Y02349*
X02284Y02344*
X02298Y02342*
X02313Y02344*
X02326Y02349*
X02338Y02358*
X02346Y02369*
X02352Y02383*
X02354Y02397*
X02352Y02412*
X02346Y02425*
X02338Y02437*
X02326Y02446*
X02313Y02451*
X02298Y02453*
G37*
G36*
X01876D02*
X01861Y02451D01*
X01848Y02446*
X01837Y02437*
X01828Y02425*
X01822Y02412*
X0182Y02397*
X01822Y02383*
X01828Y02369*
X01837Y02358*
X01848Y02349*
X01861Y02344*
X01876Y02342*
X0189Y02344*
X01904Y02349*
X01915Y02358*
X01924Y02369*
X0193Y02383*
X01932Y02397*
X0193Y02412*
X01924Y02425*
X01915Y02437*
X01904Y02446*
X0189Y02451*
X01876Y02453*
G37*
G36*
X01423D02*
X01409Y02451D01*
X01395Y02446*
X01384Y02437*
X01375Y02425*
X01369Y02412*
X01367Y02397*
X01369Y02383*
X01375Y02369*
X01384Y02358*
X01395Y02349*
X01409Y02344*
X01423Y02342*
X01438Y02344*
X01451Y02349*
X01463Y02358*
X01471Y02369*
X01477Y02383*
X01479Y02397*
X01477Y02412*
X01471Y02425*
X01463Y02437*
X01451Y02446*
X01438Y02451*
X01423Y02453*
G37*
G36*
X03142Y02493D02*
X03127D01*
X03119Y02492*
X03112Y02489*
X03106Y02484*
X03101Y02478*
X03098Y02471*
X03097Y02463*
X03098Y02455*
X03101Y02448*
X03106Y02442*
X0311Y02438*
X03109Y02433*
X03106Y02432*
X03094Y02425*
X03083Y02416*
X03074Y02405*
X03067Y02393*
X03063Y02379*
X03061Y02365*
X03063Y0235*
X03067Y02336*
X03074Y02324*
X03083Y02313*
X03094Y02304*
X03106Y02297*
X03109Y02296*
X0311Y02291*
X03106Y02287*
X03101Y02281*
X03098Y02274*
X03097Y02266*
X03098Y02258*
X03101Y02251*
X03106Y02245*
X03112Y0224*
X03119Y02237*
X03127Y02236*
X03142*
X0315Y02237*
X03157Y0224*
X03164Y02245*
X03168Y02251*
X03171Y02258*
X03172Y02266*
X03171Y02274*
X03168Y02281*
X03164Y02287*
X03159Y02291*
X0316Y02296*
X03163Y02297*
X03175Y02304*
X03186Y02313*
X03195Y02324*
X03202Y02336*
X03206Y0235*
X03208Y02365*
X03206Y02379*
X03202Y02393*
X03195Y02405*
X03186Y02416*
X03175Y02425*
X03163Y02432*
X0316Y02433*
X03159Y02438*
X03164Y02442*
X03168Y02448*
X03171Y02455*
X03172Y02463*
X03171Y02471*
X03168Y02478*
X03164Y02484*
X03157Y02489*
X0315Y02492*
X03142Y02493*
G37*
G36*
X04777Y02315D02*
X04763Y02313D01*
X04749Y02308*
X04738Y02299*
X04729Y02287*
X04723Y02274*
X04721Y0226*
X04723Y02245*
X04729Y02232*
X04738Y0222*
X04749Y02211*
X04763Y02206*
X04777Y02204*
X04791Y02206*
X04805Y02211*
X04816Y0222*
X04825Y02232*
X04831Y02245*
X04833Y0226*
X04831Y02274*
X04825Y02287*
X04816Y02299*
X04805Y02308*
X04791Y02313*
X04777Y02315*
G37*
G36*
X04462D02*
X04448Y02313D01*
X04434Y02308*
X04423Y02299*
X04414Y02287*
X04408Y02274*
X04406Y0226*
X04408Y02245*
X04414Y02232*
X04423Y0222*
X04434Y02211*
X04448Y02206*
X04462Y02204*
X04476Y02206*
X0449Y02211*
X04501Y0222*
X0451Y02232*
X04516Y02245*
X04518Y0226*
X04516Y02274*
X0451Y02287*
X04501Y02299*
X0449Y02308*
X04476Y02313*
X04462Y02315*
G37*
G36*
X03902D02*
X03888Y02313D01*
X03874Y02308*
X03863Y02299*
X03854Y02287*
X03848Y02274*
X03846Y0226*
X03848Y02245*
X03854Y02232*
X03863Y0222*
X03874Y02211*
X03888Y02206*
X03902Y02204*
X03916Y02206*
X0393Y02211*
X03941Y0222*
X0395Y02232*
X03956Y02245*
X03958Y0226*
X03956Y02274*
X0395Y02287*
X03941Y02299*
X0393Y02308*
X03916Y02313*
X03902Y02315*
G37*
G36*
X03587D02*
X03573Y02313D01*
X03559Y02308*
X03548Y02299*
X03539Y02287*
X03533Y02274*
X03531Y0226*
X03533Y02245*
X03539Y02232*
X03548Y0222*
X03559Y02211*
X03573Y02206*
X03587Y02204*
X03601Y02206*
X03615Y02211*
X03626Y0222*
X03635Y02232*
X03641Y02245*
X03643Y0226*
X03641Y02274*
X03635Y02287*
X03626Y02299*
X03615Y02308*
X03601Y02313*
X03587Y02315*
G37*
G36*
X02682D02*
X02668Y02313D01*
X02654Y02308*
X02643Y02299*
X02634Y02287*
X02628Y02274*
X02626Y0226*
X02628Y02245*
X02634Y02232*
X02643Y0222*
X02654Y02211*
X02668Y02206*
X02682Y02204*
X02696Y02206*
X0271Y02211*
X02721Y0222*
X0273Y02232*
X02736Y02245*
X02738Y0226*
X02736Y02274*
X0273Y02287*
X02721Y02299*
X0271Y02308*
X02696Y02313*
X02682Y02315*
G37*
G36*
X02367D02*
X02353Y02313D01*
X02339Y02308*
X02328Y02299*
X02319Y02287*
X02313Y02274*
X02311Y0226*
X02313Y02245*
X02319Y02232*
X02328Y0222*
X02339Y02211*
X02353Y02206*
X02367Y02204*
X02381Y02206*
X02395Y02211*
X02406Y0222*
X02415Y02232*
X02421Y02245*
X02423Y0226*
X02421Y02274*
X02415Y02287*
X02406Y02299*
X02395Y02308*
X02381Y02313*
X02367Y02315*
G37*
G36*
X01807D02*
X01793Y02313D01*
X01779Y02308*
X01768Y02299*
X01759Y02287*
X01753Y02274*
X01751Y0226*
X01753Y02245*
X01759Y02232*
X01768Y0222*
X01779Y02211*
X01793Y02206*
X01807Y02204*
X01821Y02206*
X01835Y02211*
X01846Y0222*
X01855Y02232*
X01861Y02245*
X01863Y0226*
X01861Y02274*
X01855Y02287*
X01846Y02299*
X01835Y02308*
X01821Y02313*
X01807Y02315*
G37*
G36*
X01492D02*
X01478Y02313D01*
X01464Y02308*
X01453Y02299*
X01444Y02287*
X01438Y02274*
X01436Y0226*
X01438Y02245*
X01444Y02232*
X01453Y0222*
X01464Y02211*
X01478Y02206*
X01492Y02204*
X01506Y02206*
X0152Y02211*
X01531Y0222*
X0154Y02232*
X01546Y02245*
X01548Y0226*
X01546Y02274*
X0154Y02287*
X01531Y02299*
X0152Y02308*
X01506Y02313*
X01492Y02315*
G37*
G36*
X0462Y02276D02*
X04605Y02274D01*
X04592Y02268*
X0458Y0226*
X04571Y02248*
X04566Y02235*
X04564Y0222*
X04566Y02206*
X04571Y02192*
X0458Y02181*
X04592Y02172*
X04605Y02166*
X0462Y02164*
X04634Y02166*
X04647Y02172*
X04659Y02181*
X04668Y02192*
X04673Y02206*
X04675Y0222*
X04673Y02235*
X04668Y02248*
X04659Y0226*
X04647Y02268*
X04634Y02274*
X0462Y02276*
G37*
G36*
X03745D02*
X0373Y02274D01*
X03717Y02268*
X03705Y0226*
X03696Y02248*
X03691Y02235*
X03689Y0222*
X03691Y02206*
X03696Y02192*
X03705Y02181*
X03717Y02172*
X0373Y02166*
X03745Y02164*
X03759Y02166*
X03772Y02172*
X03784Y02181*
X03793Y02192*
X03798Y02206*
X038Y0222*
X03798Y02235*
X03793Y02248*
X03784Y0226*
X03772Y02268*
X03759Y02274*
X03745Y02276*
G37*
G36*
X02525D02*
X0251Y02274D01*
X02497Y02268*
X02485Y0226*
X02476Y02248*
X02471Y02235*
X02469Y0222*
X02471Y02206*
X02476Y02192*
X02485Y02181*
X02497Y02172*
X0251Y02166*
X02525Y02164*
X02539Y02166*
X02552Y02172*
X02564Y02181*
X02573Y02192*
X02578Y02206*
X0258Y0222*
X02578Y02235*
X02573Y02248*
X02564Y0226*
X02552Y02268*
X02539Y02274*
X02525Y02276*
G37*
G36*
X0165D02*
X01635Y02274D01*
X01622Y02268*
X0161Y0226*
X01601Y02248*
X01596Y02235*
X01594Y0222*
X01596Y02206*
X01601Y02192*
X0161Y02181*
X01622Y02172*
X01635Y02166*
X0165Y02164*
X01664Y02166*
X01677Y02172*
X01689Y02181*
X01698Y02192*
X01703Y02206*
X01705Y0222*
X01703Y02235*
X01698Y02248*
X01689Y0226*
X01677Y02268*
X01664Y02274*
X0165Y02276*
G37*
G36*
X0499Y02054D02*
Y01934D01*
X0511*
X05109Y01948*
X05105Y01967*
X05097Y01986*
X05087Y02002*
X05074Y02017*
X05059Y0203*
X05042Y0204*
X05024Y02048*
X05005Y02052*
X0499Y02054*
G37*
G36*
X0498D02*
X04966Y02052D01*
X04947Y02048*
X04929Y0204*
X04912Y0203*
X04897Y02017*
X04884Y02002*
X04874Y01986*
X04866Y01967*
X04862Y01948*
X04861Y01934*
X0498*
Y02054*
G37*
G36*
X01289D02*
Y01934D01*
X01408*
X01407Y01948*
X01403Y01967*
X01395Y01986*
X01385Y02002*
X01372Y02017*
X01357Y0203*
X0134Y0204*
X01322Y02048*
X01303Y02052*
X01289Y02054*
G37*
G36*
X01279D02*
X01264Y02052D01*
X01245Y02048*
X01227Y0204*
X0121Y0203*
X01195Y02017*
X01182Y02002*
X01172Y01986*
X01164Y01967*
X0116Y01948*
X01159Y01934*
X01279*
Y02054*
G37*
G36*
X0511Y01924D02*
X0499D01*
Y01804*
X05005Y01805*
X05024Y01809*
X05042Y01817*
X05059Y01827*
X05074Y0184*
X05087Y01855*
X05097Y01872*
X05105Y0189*
X05109Y01909*
X0511Y01924*
G37*
G36*
X01408D02*
X01289D01*
Y01804*
X01303Y01805*
X01322Y01809*
X0134Y01817*
X01357Y01827*
X01372Y0184*
X01385Y01855*
X01395Y01872*
X01403Y0189*
X01407Y01909*
X01408Y01924*
G37*
G36*
X01279D02*
X01159D01*
X0116Y01909*
X01164Y0189*
X01172Y01872*
X01182Y01855*
X01195Y0184*
X0121Y01827*
X01227Y01817*
X01245Y01809*
X01264Y01805*
X01279Y01804*
Y01924*
G37*
G36*
X0498D02*
X04861D01*
X04862Y01909*
X04866Y0189*
X04874Y01872*
X04884Y01855*
X04897Y0184*
X04912Y01827*
X04929Y01817*
X04947Y01809*
X04966Y01805*
X0498Y01804*
Y01924*
G37*
G36*
X03258Y04883D02*
X03234D01*
Y04864*
X03258*
Y04883*
G37*
G36*
X03224D02*
X032D01*
Y04864*
X03224*
Y04883*
G37*
G36*
X03258Y04854D02*
X03234D01*
Y04835*
X03258*
Y04854*
G37*
G36*
X03224D02*
X032D01*
Y04835*
X03224*
Y04854*
G37*
G36*
X03082Y04749D02*
X03014D01*
Y04702*
X03082*
Y04749*
G37*
G36*
X03004D02*
X02935D01*
Y04702*
X03004*
Y04749*
G37*
G36*
X03082Y04692D02*
X03014D01*
Y04645*
X03082*
Y04692*
G37*
G36*
X03004D02*
X02935D01*
Y04645*
X03004*
Y04692*
G37*
G36*
X04213Y04772D02*
X0416D01*
Y04732*
X04213*
Y04772*
G37*
G36*
Y04722D02*
X0416D01*
Y04683*
X04213*
Y04722*
G37*
G36*
X04339Y04567D02*
X04223D01*
Y0443*
X04339*
Y04567*
G37*
G36*
X04213D02*
X04097D01*
Y0443*
X04213*
Y04567*
G37*
G36*
X04339Y0442D02*
X04223D01*
Y04283*
X04339*
Y0442*
G37*
G36*
X04213D02*
X04097D01*
Y04283*
X04213*
Y0442*
G37*
G36*
X04614Y04332D02*
X04534D01*
Y04218*
X04614*
Y04332*
G37*
G36*
X04524D02*
X04443D01*
Y04218*
X04524*
Y04332*
G37*
G36*
X04614Y04208D02*
X04534D01*
Y04095*
X04614*
Y04208*
G37*
G36*
X04524D02*
X04443D01*
Y04095*
X04524*
Y04208*
G37*
G36*
X02331Y03567D02*
X0233D01*
X02329Y03567*
X02329Y03567*
X02327Y03567*
X02326Y03566*
X02324Y03566*
X02322Y03565*
X0232Y03564*
X0232*
X0232Y03564*
X0232Y03564*
X02319Y03564*
X02319Y03563*
X02318Y03562*
X02316Y03561*
X02315Y0356*
X02314Y03558*
X02313Y03556*
Y03556*
X02313Y03556*
X02312Y03556*
X02312Y03555*
X02312Y03555*
X02312Y03554*
X02311Y03553*
X02311Y03551*
X0231Y0355*
X0231Y03548*
X0231Y03546*
Y03546*
Y03545*
Y03545*
X0231Y03545*
Y03544*
X0231Y03544*
X0231Y03542*
X02311Y03541*
X02311Y03539*
X02312Y03537*
X02313Y03535*
Y03535*
X02313Y03535*
X02313Y03535*
X02313Y03534*
X02314Y03533*
X02315Y03532*
X02316Y03531*
X02317Y0353*
X02319Y03528*
X0232Y03527*
X0232*
X02321Y03527*
X02321Y03527*
X02321Y03527*
X02322Y03527*
X02322Y03526*
X02323Y03526*
X02325Y03525*
X02327Y03525*
X02329Y03525*
X02331Y03524*
X02331*
X02332Y03525*
X02332*
X02333Y03525*
X02334Y03525*
X02336Y03525*
X02337Y03526*
X02339Y03526*
X02341Y03527*
X02341*
X02341Y03527*
X02342Y03528*
X02342Y03528*
X02343Y03528*
X02344Y03529*
X02345Y0353*
X02346Y03532*
X02348Y03533*
X02349Y03535*
Y03535*
X02349Y03535*
X02349Y03535*
X02349Y03536*
X02349Y03536*
X0235Y03537*
X0235Y03538*
X02351Y0354*
X02351Y03541*
X02351Y03543*
X02352Y03545*
Y03546*
Y03546*
Y03546*
X02351Y03547*
X02351Y03548*
X02351Y03549*
X02351Y0355*
X02351Y03551*
X0235Y03552*
X0235Y03553*
X0235Y03555*
X02349Y03556*
X02348Y03557*
X02347Y03558*
X02347Y0356*
X02345Y03561*
X02345Y03561*
X02345Y03561*
X02345Y03561*
X02344Y03562*
X02344Y03562*
X02343Y03563*
X02342Y03563*
X02341Y03564*
X0234Y03564*
X02339Y03565*
X02338Y03566*
X02337Y03566*
X02335Y03566*
X02334Y03567*
X02332Y03567*
X02331Y03567*
G37*
%LNnixie_board_v2.0-3*%
%LPD*%
G54D12*
X0251Y03776D02*
X02518Y03768D01*
X02439Y03776D02*
X0251D01*
X0215Y03926D02*
X02223D01*
X0215Y03875D02*
X02222D01*
X0215Y03826D02*
X02223D01*
X0215Y03776D02*
X02223D01*
G54D13*
X04194Y05154D02*
Y05195D01*
X04175Y05215D02*
X04194Y05195D01*
X04118Y05215D02*
X04175D01*
X04087Y05154D02*
X04143D01*
X04164Y05011D02*
X04256D01*
X04143Y05032D02*
X04164Y05011D01*
X04143Y05032D02*
Y05154D01*
X0472Y05054D02*
X04817D01*
X02771Y03901D02*
X02772Y03902D01*
X02704Y03901D02*
X02771D01*
X01203Y04708D02*
X01445D01*
X01183Y04729D02*
X01203Y04708D01*
X01183Y04729D02*
Y04936D01*
X01464Y04727D02*
Y0478D01*
X01445Y04708D02*
X01464Y04727D01*
X01198Y04951D02*
X0142D01*
X01404Y04755D02*
X01417Y04741D01*
X01387Y04755D02*
X01404D01*
X01387D02*
Y0478D01*
X01238Y04755D02*
X01387D01*
X01183Y04936D02*
X01198Y04951D01*
X0142D02*
X01572Y05103D01*
Y05175*
X01221Y04772D02*
X01238Y04755D01*
X01221Y04772D02*
Y04866D01*
X0231Y0373D02*
X02333Y03753D01*
X01822Y0373D02*
X0231D01*
X01804Y03747D02*
X01822Y0373D01*
X02333Y03826D02*
Y03999D01*
Y03753D02*
Y03826D01*
Y03999D02*
X0235Y04016D01*
X01804Y03747D02*
Y03797D01*
X02514Y0389D02*
Y03892D01*
Y03835D02*
Y0389D01*
X02333Y03826D02*
X02439D01*
X0235Y04016D02*
X02588D01*
X02704Y03901*
X0164Y04241D02*
X01684D01*
X03099Y04348D02*
Y04467D01*
X01572Y05175D02*
X01619D01*
X01525D02*
X01572D01*
X01619D02*
D01*
X01221Y04866D02*
X01244Y0489D01*
X02514Y03835D02*
X02518Y03831D01*
X02991Y04312D02*
X03063D01*
X03099Y04348*
X02513Y03826D02*
X02518Y03831D01*
X02439Y03826D02*
X02513D01*
X04209Y05037D02*
X04256D01*
X04194Y05051D02*
X04209Y05037D01*
X04194Y05051D02*
Y05154D01*
G54D16*
X04564Y03827D03*
X04615D03*
X04564Y039D03*
X04615D03*
X04329Y052D03*
X0438D03*
X02371Y04758D03*
X02422D03*
X01898Y04375D03*
X01847D03*
X01735Y04241D03*
X01684D03*
X01855D03*
X01804D03*
X0192Y04878D03*
X01869D03*
X0192Y04947D03*
X01869D03*
X0192Y05016D03*
X01869D03*
X01295Y0489D03*
X01244D03*
X01478Y04485D03*
X01427D03*
X01478Y04558D03*
X01427D03*
X0438Y05073D03*
X04329D03*
X0438Y0501D03*
X04329D03*
X04194Y05154D03*
X04143D03*
X03964Y04992D03*
X03913D03*
X03964Y05062D03*
X03913D03*
X03964Y05132D03*
X03913D03*
X02569Y03768D03*
X02518D03*
X02569Y03831D03*
X02518D03*
X02991Y04372D03*
X0294D03*
X02991Y04312D03*
X0294D03*
G54D17*
X0472Y05054D03*
X04629D03*
G54D18*
X04675Y05211D03*
G54D19*
X04916Y04727D03*
X0458D03*
G54D20*
X04128Y04171D03*
X04308D03*
G54D21*
X04218Y04425D03*
G54D22*
X03045Y0389D03*
Y03771D03*
X0332Y0389D03*
Y03771D03*
G54D23*
X04392Y03875D03*
X04144D03*
G54D24*
X01686Y03922D03*
X01883Y03797D03*
X01725D03*
X01804D03*
X01922Y03922D03*
X01844D03*
X01765D03*
X01647Y03797D03*
G54D25*
X0177Y04483D03*
Y04457D03*
Y04559D03*
Y04508D03*
Y04534D03*
Y04636D03*
Y04585D03*
Y04611D03*
Y04662D03*
Y04687D03*
Y04764D03*
Y04713D03*
Y04738D03*
Y0479D03*
X02055Y04457D03*
Y04483D03*
Y04559D03*
Y04508D03*
Y04534D03*
Y04585D03*
Y04611D03*
Y04662D03*
Y04713D03*
Y04636D03*
Y04687D03*
Y0479D03*
Y04738D03*
Y04764D03*
G54D26*
X04325Y05137D03*
X04384D03*
X02573Y0389D03*
X02514D03*
G54D27*
X0156Y04561D03*
Y04482D03*
G54D28*
X01643Y04547D03*
Y04496D03*
X01336Y04486D03*
Y04435D03*
X02218Y04598D03*
Y04547D03*
X02159Y04598D03*
Y04547D03*
X02152Y04803D03*
Y04752D03*
X01684Y05175D03*
Y05124D03*
X01619Y05175D03*
Y05124D03*
X01525Y05175D03*
Y05124D03*
X0146Y05175D03*
Y05124D03*
X04825Y05054D03*
Y05003D03*
X03229Y0491D03*
Y04859D03*
Y05194D03*
Y05142D03*
X0215Y03826D03*
Y03775D03*
Y03926D03*
Y03875D03*
G54D29*
X01944Y04189D03*
Y04163D03*
Y04112D03*
Y04138D03*
Y04087D03*
Y04036D03*
Y04061D03*
Y0401D03*
X01715Y04189D03*
Y04087D03*
Y04163D03*
Y04138D03*
Y04061D03*
Y04112D03*
Y0401D03*
Y04036D03*
G54D30*
X02503Y04698D03*
Y04648D03*
Y04598D03*
Y04548D03*
X02286D03*
Y04698D03*
Y04648D03*
Y04598D03*
X02439Y03926D03*
Y03876D03*
Y03826D03*
Y03776D03*
X02223D03*
Y03926D03*
Y03876D03*
Y03826D03*
G54D31*
X0119Y04486D03*
Y04433D03*
X01143Y04486D03*
Y04433D03*
G54D32*
X0156Y04811D03*
Y04752D03*
X03229Y05026D03*
Y04967D03*
G54D33*
X01626Y04888D03*
X01553D03*
X01626Y04968D03*
X01553D03*
X02972Y04019D03*
X03045D03*
G54D34*
X02107Y05235D03*
Y05178D03*
X01966Y05235D03*
Y05178D03*
X027Y05235D03*
Y05178D03*
X02558Y05235D03*
Y05178D03*
X02403Y05235D03*
Y05178D03*
X02262Y05235D03*
Y05178D03*
G54D35*
X04256Y05088D03*
Y05062D03*
Y05037D03*
Y05011D03*
X04083D03*
Y05088D03*
Y05062D03*
Y05037D03*
G54D36*
X04272Y04036D03*
X04164D03*
X04478Y04888D03*
X0437D03*
G54D37*
X03145Y05169D03*
Y05117D03*
Y05143D03*
Y05092D03*
X03039D03*
Y05169D03*
Y05117D03*
Y05143D03*
G54D38*
X03092Y0513D03*
G54D39*
X02869Y05192D03*
Y04944D03*
G54D40*
X01495Y04888D03*
Y04862D03*
Y04811D03*
Y04837D03*
X01355Y04811D03*
Y04888D03*
Y04837D03*
Y04862D03*
G54D41*
X01464Y04919D03*
X01438D03*
X01464Y0478D03*
X01438D03*
X01413D03*
X01387Y04919D03*
X01413D03*
X01387Y0478D03*
G54D42*
X01425Y0485D03*
G54D43*
X04529Y04213D03*
X0492D03*
G54D44*
X04387Y04727D03*
X04218D03*
G54D45*
X04513Y05087D03*
Y04979D03*
G54D46*
X03009Y04697D03*
G54D47*
X03099Y04467D03*
X02918D03*
X03009D03*
G54D48*
X03626Y05202D03*
Y03922D03*
G54D49*
X04866Y05003D02*
D01*
X0487Y05003*
X04874Y05004*
X04878Y05005*
X04882Y05006*
X04886Y05007*
X0489Y05008*
X04894Y0501*
X04897Y05012*
X04901Y05015*
X04904Y05017*
X04907Y0502*
X04908Y05021*
X04569Y05014D02*
D01*
X04566Y05017*
X04562Y05019*
X04559Y05022*
X04555Y05024*
X04551Y05026*
X04547Y05028*
X04543Y05029*
X04538Y0503*
X04534Y05031*
X0453Y05032*
X04525Y05032*
X04524Y05032*
X04779Y04984D02*
D01*
X04783Y04984*
X04788Y04985*
X04792Y04986*
X04797Y04987*
X04801Y04988*
X04805Y0499*
X04809Y04992*
X04813Y04994*
X04817Y04997*
X0482Y04999*
X04824Y05002*
X04825Y05003*
X04569Y05014D02*
D01*
X04574Y05009*
X0458Y05004*
X04585Y05*
X04591Y04997*
X04597Y04994*
X04604Y04991*
X0461Y04989*
X04617Y04987*
X04624Y04985*
X04631Y04985*
X04638Y04984*
X0464Y04984*
X04388Y04957D02*
D01*
X04391Y04957*
X04395Y04958*
X04399Y04959*
X04402Y04959*
X04406Y04961*
X04409Y04962*
X04413Y04964*
X04416Y04965*
X04419Y04968*
X04422Y0497*
X04425Y04972*
X04426Y04973*
X04297Y04957D02*
D01*
X04291Y04957*
X04284Y04956*
X04278Y04955*
X04272Y04954*
X04266Y04952*
X0426Y04949*
X04254Y04946*
X04248Y04943*
X04243Y0494*
X04238Y04936*
X04233Y04931*
X04232Y0493*
X04112Y04852D02*
D01*
X04119Y04852*
X04126Y04852*
X04132Y04854*
X04139Y04855*
X04146Y04858*
X04152Y0486*
X04159Y04863*
X04165Y04867*
X0417Y04871*
X04176Y04875*
X04181Y0488*
X04182Y04881*
X04213Y04206D02*
D01*
X04213Y04209*
X04212Y04212*
X04212Y04215*
X04211Y04218*
X0421Y04221*
X04209Y04224*
X04208Y04227*
X04206Y0423*
X04204Y04233*
X04202Y04235*
X042Y04237*
X042Y04238*
D01*
X04197Y04241*
X04194Y04243*
X04191Y04245*
X04188Y04247*
X04184Y04249*
X04181Y0425*
X04177Y04251*
X04174Y04252*
X0417Y04253*
X04166Y04254*
X04162Y04254*
X04161Y04254*
X04164Y04036D02*
D01*
X04172Y04044*
X04179Y04053*
X04186Y04063*
X04192Y04073*
X04197Y04083*
X04202Y04094*
X04206Y04105*
X04209Y04116*
X04211Y04128*
X04212Y0414*
X04213Y04151*
X04213Y04154*
X04005Y04852D02*
D01*
X04002Y04851*
X03999Y04851*
X03996Y04851*
X03993Y0485*
X0399Y04849*
X03987Y04848*
X03985Y04847*
X03982Y04845*
X0398Y04843*
X03977Y04842*
X03975Y0484*
X03975Y04839*
D01*
X0397Y04835*
X03967Y0483*
X03963Y04825*
X0396Y0482*
X03957Y04815*
X03955Y04809*
X03953Y04804*
X03952Y04798*
X03951Y04792*
X0395Y04786*
X0395Y0478*
X0395Y04779*
Y04328D02*
D01*
X0395Y04323*
X0395Y04318*
X03951Y04312*
X03952Y04307*
X03954Y04302*
X03956Y04297*
X03958Y04293*
X03961Y04288*
X03964Y04284*
X03967Y04279*
X03971Y04275*
X03972Y04275*
D01*
X03975Y04271*
X03979Y04268*
X03983Y04265*
X03987Y04263*
X03992Y0426*
X03996Y04259*
X04001Y04257*
X04006Y04256*
X04011Y04255*
X04015Y04254*
X0402Y04254*
X04022Y04254*
X04426Y04973D02*
D01*
X04428Y04976*
X04431Y04979*
X04433Y04982*
X04435Y04985*
X04436Y04989*
X04438Y04992*
X04439Y04996*
X0444Y04999*
X04441Y05003*
X04441Y05007*
X04442Y05011*
X04442Y05012*
X04825Y05003D02*
X04866D01*
X0464Y04984D02*
X04779D01*
X04442Y05032D02*
X04524D01*
X04325Y04957D02*
X04388D01*
X04297D02*
X04325D01*
X04182Y04881D02*
X04232Y0493D01*
X04213Y04154D02*
Y04206D01*
X04616Y03898D02*
X04653D01*
X04005Y04852D02*
X04112D01*
X0395Y04328D02*
Y04779D01*
X04164Y04036D02*
D01*
X04022Y04254D02*
X04161D01*
X03615Y03935D02*
X03775D01*
X036Y0392D02*
X03615Y03935D01*
X03913Y05132D02*
Y05188D01*
Y05062D02*
Y05132D01*
X04908Y05021D02*
X04985Y05098D01*
X0394Y05215D02*
X04118D01*
X03913Y05188D02*
X0394Y05215D01*
X04442Y05012D02*
Y05032D01*
X04325Y04957D02*
X04329Y04961D01*
X04442Y05032D02*
Y05079D01*
Y05122*
X04427Y05137D02*
X04442Y05122D01*
X04384Y05137D02*
X04427D01*
X04797Y03754D02*
Y03922D01*
X04727Y03684D02*
X04797Y03754D01*
X01692Y03684D02*
X04727D01*
X04797Y03922D02*
X04885Y0401D01*
X05016*
X02605Y03726D02*
X02695Y03816D01*
X02536Y03726D02*
X02605D01*
X02518Y03744D02*
X02536Y03726D01*
X0295Y04971D02*
X02991Y05012D01*
X0295Y04846D02*
Y04971D01*
X02903Y048D02*
X0295Y04846D01*
X02991Y05012D02*
Y05097D01*
X03475Y0453D02*
Y05175D01*
X03412Y04467D02*
X03475Y0453D01*
X03099Y04467D02*
X03412D01*
X05016Y0401D02*
X05059Y04053D01*
Y04573*
X05008Y04625D02*
X05059Y04573D01*
X04636Y04625D02*
X05008D01*
X0458Y0468D02*
X04636Y04625D01*
X0458Y0468D02*
Y04727D01*
X04615Y039D02*
X04616Y03898D01*
X04615Y03827D02*
X04653D01*
X03914Y04171D02*
X04128D01*
X03889Y04196D02*
X03914Y04171D01*
X03889Y04196D02*
Y04878D01*
X0391Y049*
X0406*
X04083Y04922*
Y05003*
X03913Y05062D02*
D01*
Y04992D02*
Y05062D01*
X04329Y04961D02*
Y0501D01*
X04513Y04922D02*
Y04977D01*
X04478Y04888D02*
X04513Y04922D01*
X04283Y04888D02*
X0437D01*
Y04745D02*
Y04888D01*
Y04745D02*
X04387Y04727D01*
X0458*
X01647Y03729D02*
Y03797D01*
Y03729D02*
X01692Y03684D01*
X02991Y04209D02*
X03161D01*
X02991D02*
Y04312D01*
X02914Y04209D02*
X02991D01*
X02846Y04141D02*
X02914Y04209D01*
X02846Y03847D02*
Y04141D01*
X02815Y03816D02*
X02846Y03847D01*
X02772Y03816D02*
X02815D01*
X02695D02*
X02772D01*
X04329Y0501D02*
Y05018D01*
X02803Y048D02*
X02866D01*
X02869Y04865D02*
Y04944D01*
X02803Y048D02*
X02869Y04865D01*
X02518Y03744D02*
Y03768D01*
X03038Y04858D02*
Y05068D01*
Y04858D02*
X03227D01*
X03036D02*
X03038D01*
X03009Y0483D02*
X03036Y04858D01*
X03009Y04697D02*
Y0483D01*
X02767Y0495D02*
Y05178D01*
X02869Y04972D02*
X02935Y05039D01*
X03009Y04467D02*
Y04523D01*
X0299Y04542D02*
X03009Y04523D01*
X02752Y04542D02*
X0299D01*
X02654Y04444D02*
X02752Y04542D01*
X02654Y04211D02*
Y04444D01*
X0259Y04147D02*
X02654Y04211D01*
X0249Y04147D02*
X0259D01*
X03305Y05233D02*
X03306Y05232D01*
Y05045D02*
Y05232D01*
X03227Y04858D02*
X03229Y04859D01*
X03009Y04697D02*
X03038Y04726D01*
X01619Y05124D02*
X01684D01*
X01525D02*
D01*
X0146D02*
X01525D01*
X02107Y05178D02*
X02262D01*
X02573Y0389D02*
Y03925D01*
Y03835D02*
Y0389D01*
X02439Y0397D02*
X0244Y03971D01*
X02439Y03926D02*
Y0397D01*
X0244Y03971D02*
X02528D01*
X02573Y03925*
X02569Y03831D02*
X02573Y03835D01*
X02875Y04372D02*
X02918D01*
X0294*
X02918D02*
X02918Y04372D01*
Y04467*
X02767Y05178D02*
X0278Y05192D01*
X02869*
X027Y05178D02*
X02767D01*
X03092Y05053D02*
Y0513D01*
Y05053D02*
X03122Y05023D01*
X03305Y05233D02*
X03565D01*
X03013D02*
X03305D01*
X03287Y05026D02*
X03306Y05045D01*
X03229Y05026D02*
X03287D01*
X01847Y04375D02*
Y04464D01*
X01828Y04483D02*
X01847Y04464D01*
X0177Y04483D02*
X01828D01*
X02991Y04372D02*
X03009Y04389D01*
Y04467*
X0294Y04312D02*
Y04372D01*
X02869Y04944D02*
Y04972D01*
X03229Y0491D02*
Y04967D01*
X02439Y03876D02*
Y03926D01*
X02569Y03768D02*
Y03831D01*
X02998Y05158D02*
Y05218D01*
X03565Y05233D02*
X036Y05199D01*
X02998Y05218D02*
X03013Y05233D01*
X03228Y05143D02*
X03229Y05142D01*
X0438Y05083D02*
D01*
Y0502D02*
Y05083D01*
G54D50*
X0167Y03978D02*
D01*
X01665Y03977*
X01661Y03977*
X01656Y03976*
X01651Y03975*
X01647Y03973*
X01642Y03972*
X01638Y0397*
X01634Y03967*
X0163Y03965*
X01626Y03962*
X01623Y03958*
X01622Y03958*
D01*
X01618Y03953*
X01614Y03949*
X0161Y03944*
X01607Y03938*
X01605Y03933*
X01602Y03928*
X016Y03922*
X01599Y03916*
X01598Y0391*
X01597Y03904*
X01597Y03898*
X01597Y03897*
X02772Y03988D02*
Y04055D01*
X0149Y04113D02*
Y04129D01*
X01484Y04107D02*
X0149Y04113D01*
X0438Y05137D02*
Y052D01*
Y05137D02*
X04384D01*
X0438Y052D02*
X04384Y05196D01*
X04307Y05018D02*
X04329D01*
X02403Y05176D02*
X02556D01*
X02215Y04548D02*
X02275D01*
X02152Y04547D02*
X02215D01*
X01725Y03978D02*
Y0401D01*
X0167Y03978D02*
X01725D01*
X01484Y04107D02*
X01485Y04107D01*
X01597Y03754D02*
Y03897D01*
X04305Y05081D02*
X04329D01*
Y05133*
Y05073D02*
Y05081D01*
X04325Y05137D02*
X04329Y05133D01*
X0192Y04838D02*
Y04878D01*
X019Y04817D02*
X0192Y04838D01*
X019Y0467D02*
Y04817D01*
X01848Y04947D02*
X01869D01*
X0183Y04929D02*
X01848Y04947D01*
X0183Y0467D02*
Y04929D01*
X01863Y04941D02*
X01869Y04935D01*
X01962Y05016D02*
X01995Y04983D01*
X02504Y04648D02*
Y04736D01*
X02215Y04598D02*
X02286D01*
X01995Y0479D02*
Y04983D01*
X01869Y05016D02*
Y05245D01*
X01796Y05016D02*
X01869D01*
X0177Y0499D02*
X01796Y05016D01*
X0177Y0479D02*
Y0499D01*
X01818Y05101D02*
Y0512D01*
X0173Y05013D02*
X01818Y05101D01*
X0173Y0486D02*
Y05013D01*
X04513Y05087D02*
Y05212D01*
Y05087D02*
X04628D01*
X04475Y0525D02*
X04513Y05212D01*
X0127Y04535D02*
X01288Y04554D01*
X0127Y04477D02*
Y04535D01*
X01288Y04554D02*
X01373D01*
X01252Y0446D02*
X0127Y04477D01*
X01155Y0446D02*
X01252D01*
X01598Y04206D02*
X01615Y04189D01*
X01538Y04206D02*
X01598D01*
X01524Y04192D02*
X01538Y04206D01*
X01615Y04189D02*
X01715D01*
X0147Y04192D02*
X01524D01*
X01713Y0435D02*
X01735Y04328D01*
Y04241D02*
Y04328D01*
X0157Y03939D02*
Y04095D01*
X01522Y03892D02*
X0157Y03939D01*
X01472Y03892D02*
X01522D01*
X01725Y03797D02*
Y03978D01*
X0159Y04968D02*
Y05019D01*
X04629Y05088D02*
Y05166D01*
X04628Y05087D02*
X04629Y05088D01*
Y05166D02*
X04675Y05211D01*
X01468Y0429D02*
X0147Y04292D01*
X01161Y0429D02*
X01468D01*
X01145Y04307D02*
X01161Y0429D01*
X02803Y0468D02*
X02886D01*
X03964Y04994D02*
X04017D01*
X0428Y052D02*
X04329D01*
X04256Y05176D02*
X0428Y052D01*
X04256Y05088D02*
Y05176D01*
X04343Y0525D02*
X04475D01*
X04329Y05235D02*
X04343Y0525D01*
X04329Y052D02*
Y05235D01*
X01172Y04662D02*
X0177D01*
X01143Y04633D02*
X01172Y04662D01*
X01143Y04486D02*
Y04633D01*
X01212Y046D02*
X0135D01*
X0119Y04577D02*
X01212Y046D01*
X0119Y04486D02*
Y04577D01*
X01143Y04433D02*
Y04448D01*
X01155Y0446*
X0119Y04433D02*
X01233D01*
X01145Y04307D02*
Y04375D01*
X01869Y05245D02*
X01956D01*
X01223D02*
X01869D01*
X01956D02*
X01966Y05235D01*
X01145Y05167D02*
X01223Y05245D01*
X01145Y04684D02*
X0153D01*
X0156Y04713D02*
Y04752D01*
X0153Y04684D02*
X0156Y04713D01*
X01726Y05216D02*
X01754Y05188D01*
X01478Y05216D02*
X01726D01*
X0146Y05198D02*
X01478Y05216D01*
X0146Y05175D02*
Y05198D01*
X01754Y05093D02*
Y05188D01*
X01691Y0503D02*
X01754Y05093D01*
X01691Y0478D02*
Y0503D01*
Y0478D02*
X01707Y04764D01*
X0177*
X01688Y04738D02*
X0177D01*
X01665Y04762D02*
X01688Y04738D01*
X01665Y04762D02*
Y05054D01*
X01725Y05115*
Y0516*
X0171Y05175D02*
X01725Y0516D01*
X01684Y05175D02*
X0171D01*
X01145Y04684D02*
Y05167D01*
X02295Y04835D02*
X02513D01*
X02173Y04713D02*
X02295Y04835D01*
X02655Y04518D02*
Y05216D01*
X02596Y0446D02*
X02655Y04518D01*
X02157Y0446D02*
X02596D01*
X0263Y04536D02*
Y0509D01*
X0258Y04486D02*
X0263Y04536D01*
X02166Y04486D02*
X0258D01*
X0261Y0511D02*
X0263Y0509D01*
X02582Y04875D02*
X02605Y04852D01*
Y04552D02*
Y04852D01*
X02567Y04514D02*
X02605Y04552D01*
X02005Y04415D02*
X02077Y04343D01*
Y04051D02*
Y04343D01*
X02036Y0401D02*
X02077Y04051D01*
X02055Y04414D02*
X02108Y04361D01*
Y04179D02*
Y04361D01*
Y04179D02*
X0214Y04147D01*
X02297Y04796D02*
X02523D01*
X02188Y04687D02*
X02297Y04796D01*
X02523D02*
X02554Y04765D01*
X02055Y04713D02*
X02173D01*
X02055Y04687D02*
X02188D01*
X02554Y04634D02*
Y04765D01*
X02513Y04835D02*
X02556D01*
X0258Y04811*
Y04625D02*
Y04811D01*
X02422Y04758D02*
X02481D01*
X02418D02*
X02422D01*
X02152Y04875D02*
X02582D01*
X02481Y04758D02*
X02504Y04736D01*
X02311Y04758D02*
X02366D01*
X02286Y04734D02*
X02311Y04758D01*
X02286Y04698D02*
Y04734D01*
X02152Y04803D02*
Y04875D01*
Y05039*
X01954Y0479D02*
X01995D01*
X01936Y04772D02*
X01954Y0479D01*
X01936Y04643D02*
Y04772D01*
X02008Y04738D02*
X02055D01*
X0197Y047D02*
X02008Y04738D01*
X0197Y04248D02*
Y047D01*
X01979Y04764D02*
X02055D01*
X0197Y04755D02*
X01979Y04764D01*
X01635Y04598D02*
X01647Y04611D01*
X0177*
X01883Y03807D02*
Y03969D01*
X01869Y03983D02*
X01883Y03969D01*
X01869Y03983D02*
Y04066D01*
X0189Y04087D02*
X01944D01*
X01869Y04066D02*
X0189Y04087D01*
X01883Y04163D02*
X01944D01*
X01844Y04124D02*
X01883Y04163D01*
X01844Y03932D02*
Y04124D01*
X02119Y04534D02*
X02166Y04486D01*
X02055Y04534D02*
X02119D01*
X02991Y05097D02*
X03012Y05117D01*
X03039*
X0147Y04092D02*
X01485Y04107D01*
X0157Y04147D02*
Y04164D01*
X01529Y04106D02*
X0157Y04147D01*
X01529Y04008D02*
Y04106D01*
X0147Y03992D02*
X01513D01*
X01529Y04008*
X0159Y04968D02*
X01626D01*
X0159Y04711D02*
Y04968D01*
Y04711D02*
X01614Y04687D01*
X0177*
X01635Y04729D02*
X0165Y04713D01*
X01626Y04888D02*
X01635Y04879D01*
Y04729D02*
Y04879D01*
X0165Y04713D02*
X0177D01*
X0167Y04036D02*
X01715D01*
X0167Y0402D02*
Y04036D01*
Y0402D02*
X0168Y0401D01*
X01715*
X0167Y04087D02*
Y04122D01*
X01685Y04138*
X01715*
X0167Y04036D02*
Y04087D01*
X01715*
Y0401D02*
X01725D01*
X02022Y04687D02*
X02055D01*
X02005Y0467D02*
X02022Y04687D01*
X02005Y04415D02*
Y0467D01*
X0197Y04248D02*
X02007Y0421D01*
X01907Y04585D02*
X01935Y04558D01*
Y04255D02*
Y04558D01*
X01921Y04241D02*
X01935Y04255D01*
X0177Y04585D02*
X01907D01*
X01855Y04241D02*
X01921D01*
X01866Y04189D02*
X01944D01*
X01804Y04127D02*
X01866Y04189D01*
X01804Y03807D02*
Y04127D01*
X01855Y04217D02*
Y04241D01*
X01765Y04126D02*
X01855Y04217D01*
X01765Y03932D02*
Y04126D01*
X01911Y04036D02*
X01944D01*
X01895Y0402D02*
X01911Y04036D01*
X01895Y03998D02*
Y0402D01*
Y03998D02*
X01922Y0397D01*
Y03932D02*
Y0397D01*
X01715Y0401D02*
X01715Y0401D01*
X04325Y05085D02*
X04329Y05081D01*
X0201Y043D02*
X0203D01*
X02045Y04285*
X02007Y04172D02*
Y0421D01*
X01973Y04138D02*
X02007Y04172D01*
X01944Y04138D02*
X01973D01*
X01944Y04061D02*
X02021D01*
X02045Y04085*
Y04285*
X02553Y04598D02*
X0258Y04625D01*
X02504Y04598D02*
X02553D01*
X02458Y0409D02*
Y0409D01*
Y04074D02*
Y0409D01*
X0177Y04241D02*
X01804D01*
X02991Y0468D02*
X03009Y04697D01*
X01336Y04486D02*
X01376D01*
X01388Y04475*
Y04441D02*
Y04475D01*
Y04441D02*
X01404Y04425D01*
X01427*
X01656Y04534D02*
X0177D01*
X01643Y04547D02*
X01656Y04534D01*
X0156Y04558D02*
X01632D01*
X01478D02*
X0156D01*
X01478Y04485D02*
X0156D01*
X01632*
X01655Y04508*
X0177*
X01233Y04433D02*
X01333D01*
X01336Y04435*
X01251Y0435D02*
X01713D01*
X0139Y0457D02*
Y04625D01*
X01373Y04554D02*
X0139Y0457D01*
Y04625D02*
X01401Y04636D01*
X01691Y04466D02*
X017Y04457D01*
X01691Y04566D02*
X01697Y04559D01*
X0239Y04147D02*
X02421Y04116D01*
Y04074D02*
Y04116D01*
X02458D02*
X0249Y04147D01*
X02458Y0409D02*
Y04116D01*
X01427Y04425D02*
Y04485D01*
X01401Y04636D02*
X0177D01*
X01233Y04368D02*
X01251Y0435D01*
X01233Y04368D02*
Y04433D01*
X01321Y04811D02*
X01355D01*
X013Y0479D02*
X01321Y04811D01*
X01276Y0479D02*
X013D01*
X01276Y04837D02*
X01355D01*
X02055Y04414D02*
Y04457D01*
X01944Y04112D02*
X0201D01*
X02935Y05039D02*
X02936Y0504D01*
X0207Y04859D02*
Y0508D01*
X01916Y04623D02*
X01936Y04643D01*
X019Y04623D02*
X01916D01*
X01735Y04241D02*
X0177D01*
X0214Y04147D02*
X0229D01*
X0259Y04247D02*
Y044D01*
X02554Y04436D02*
X0259Y044D01*
X02144Y04436D02*
X02554D01*
X02097Y04483D02*
X02144Y04436D01*
X02055Y04483D02*
X02097D01*
X01427Y04485D02*
Y04558D01*
X02392Y0511D02*
X0261D01*
X0236Y05142D02*
X02392Y0511D01*
X01495Y04811D02*
X0156D01*
X01322Y04862D02*
X01355D01*
X01295Y0489D02*
X01322Y04862D01*
X01488Y04968D02*
X01553D01*
X01464Y04943D02*
X01488Y04968D01*
X03145Y05092D02*
X0319D01*
X02655Y05216D02*
X02674Y05235D01*
X04017Y04957D02*
Y04994D01*
Y05018*
X04036Y05037*
X04083*
X02248Y04514D02*
Y04542D01*
X02373Y05235D02*
X02403D01*
X0236Y05222D02*
X02373Y05235D01*
X0236Y05142D02*
Y05222D01*
X02674Y05235D02*
X027D01*
X02556Y05176D02*
X02558Y05178D01*
X01995Y0479D02*
X02055D01*
X017Y04457D02*
X0177D01*
X01697Y04559D02*
X0177D01*
X01495Y04888D02*
X01554D01*
X01464Y04919D02*
Y04943D01*
X02108Y04508D02*
X02157Y0446D01*
X02055Y04508D02*
X02108D01*
X02403Y05176D02*
X02404Y05175D01*
X0192Y04878D02*
Y04935D01*
Y05016D02*
X01962D01*
X01822Y04662D02*
X0183Y0467D01*
X0177Y04662D02*
X01822D01*
X0177Y04636D02*
X01845D01*
X01869Y04661*
Y04878*
X0237Y04635D02*
X02383Y04648D01*
X0237Y04598D02*
Y04635D01*
Y04539D02*
Y04598D01*
Y04539D02*
X02394Y04514D01*
X02567*
X02139Y0479D02*
X02152Y04803D01*
X02055Y0479D02*
X02139D01*
X02055Y04764D02*
X0214D01*
X02152Y04752*
X02225Y04648D02*
X02275D01*
X02214Y04636D02*
X02225Y04648D01*
X02055Y04636D02*
X02214D01*
X02215Y04598D02*
X02215Y04598D01*
X02286D02*
X0237D01*
X02055Y04662D02*
X02205D01*
X02543Y04623D02*
X02554Y04634D01*
X02461Y04623D02*
X02543D01*
X02241Y04698D02*
X02275D01*
X02205Y04662D02*
X02241Y04698D01*
X0245Y04612D02*
X02461Y04623D01*
X0245Y0456D02*
Y04612D01*
Y0456D02*
X02461Y04548D01*
X02503*
X02383Y04648D02*
X02503D01*
X02504*
X02215Y04547D02*
X02215Y04548D01*
X03039Y05069D02*
Y05092D01*
X03038Y05068D02*
X03039Y05069D01*
X0177Y04559D02*
X01878D01*
X01898Y04539*
Y04375D02*
Y04539D01*
X01944Y0401D02*
X02036D01*
X02055Y04559D02*
X0214D01*
X02152Y04547*
X02055Y04585D02*
X02139D01*
X02152Y04598*
X0215Y03926D02*
X0215Y03926D01*
X02222Y03875D02*
X02223Y03876D01*
X0215Y03826D02*
X0215Y03826D01*
X0215Y03775D02*
X0215Y03776D01*
X01715Y04189D02*
X01735Y04209D01*
Y04241*
X03014Y05143D02*
X03039D01*
X02998Y05158D02*
X03014Y05143D01*
X03099D02*
X03145D01*
X03073Y05169D02*
X03099Y05143D01*
X03039Y05169D02*
X03073D01*
X03145Y05143D02*
X03228D01*
X03192Y05194D02*
X03229D01*
X03167Y05169D02*
X03192Y05194D01*
X03145Y05169D02*
X03167D01*
X04256Y05037D02*
X04289D01*
X04307Y05018*
X04287Y05062D02*
X04305Y05081D01*
X04256Y05062D02*
X04287D01*
X04027Y05088D02*
X04083D01*
X03983Y05132D02*
X04027Y05088D01*
X03964Y05132D02*
X03983D01*
X03964Y05062D02*
X04083D01*
G54D96*
X04283Y04888D03*
X02772Y03988D03*
X02803Y0468D03*
Y048D03*
X02772Y03816D03*
Y03902D03*
G54D97*
X03198Y04209D03*
X03161D03*
X02903Y048D03*
X02866D03*
X02458Y04074D03*
X02421D03*
G54D98*
X0147Y03892D03*
Y03992D03*
Y04092D03*
Y04192D03*
Y04292D03*
G54D99*
X04164Y04036D02*
D01*
X04142D02*
X04164D01*
X04102Y03958D02*
Y03995D01*
X04142Y04036*
X04392Y03875D02*
X04489D01*
X04489Y03875*
X04454Y03776D02*
X04489Y0381D01*
X04447Y03768D02*
X04454Y03776D01*
X03531Y03768D02*
X04447D01*
X03409Y0389D02*
X03531Y03768D01*
X0332Y0389D02*
X03409D01*
X04102Y03917D02*
Y03958D01*
Y03917D02*
X04144Y03875D01*
X04489Y0381D02*
Y03875D01*
Y03875D02*
Y03964D01*
X04526Y04001*
X03217Y03771D02*
X0332D01*
G54D100*
X04768Y04727D02*
X04916D01*
X04489Y03875D02*
X04513Y039D01*
X04506Y03827D02*
X04564D01*
X04513Y039D02*
X04564D01*
G54D101*
X0293Y03771D02*
X03045D01*
X04489Y0381D02*
X04506Y03827D01*
X04878Y04213D02*
X0492D01*
X02941Y04043D02*
X02953Y04031D01*
X02941Y04043D02*
Y04121D01*
X03045Y04019D02*
X03045Y04018D01*
Y0389D02*
Y04018D01*
X03045Y0389D02*
X03045Y0389D01*
G54D102*
X0332Y0389D02*
Y04185D01*
X03296Y04209D02*
X0332Y04185D01*
X03198Y04209D02*
X03296D01*
G54D103*
X04666Y04001D02*
X04878Y04213D01*
X04526Y04001D02*
X04666D01*
G54D104*
X04218Y04425D02*
X0437D01*
X04529Y04266*
Y04213D02*
Y04266D01*
G54D105*
X04308Y04072D02*
Y04171D01*
X04272Y04036D02*
X04308Y04072D01*
G54D106*
X01284Y03209D02*
X04985D01*
X01284Y01929D02*
X04985D01*
G54D107*
X03902Y0226D03*
X03971Y02397D03*
Y02575D03*
Y02752D03*
X03902Y02889D03*
X03745Y02929D03*
X03587Y02889D03*
X03518Y02752D03*
Y02575D03*
Y02397D03*
X03587Y0226D03*
X03745Y0222D03*
X02525D03*
X02367Y0226D03*
X02298Y02397D03*
Y02575D03*
Y02752D03*
X02367Y02889D03*
X02525Y02929D03*
X02682Y02889D03*
X02751Y02752D03*
Y02575D03*
Y02397D03*
X02682Y0226D03*
X0462Y0222D03*
X04462Y0226D03*
X04393Y02397D03*
Y02575D03*
Y02752D03*
X04462Y02889D03*
X0462Y02929D03*
X04777Y02889D03*
X04846Y02752D03*
Y02575D03*
Y02397D03*
X04777Y0226D03*
X0165Y0222D03*
X01492Y0226D03*
X01423Y02397D03*
Y02575D03*
Y02752D03*
X01492Y02889D03*
X0165Y02929D03*
X01807Y02889D03*
X01876Y02752D03*
Y02575D03*
Y02397D03*
X01807Y0226D03*
G54D108*
X0259Y04247D03*
X0249D03*
X0259Y04147D03*
X0239Y04247D03*
X0249Y04147D03*
X0229D03*
X0239D03*
X0229Y04247D03*
G54D109*
X03135Y02848D03*
Y02651D03*
Y02463D03*
Y02266D03*
G54D110*
X03135Y0275D03*
Y02365D03*
G54D111*
X01284Y05098D03*
X04985Y03818D03*
X01284D03*
X04985Y05098D03*
Y03209D03*
X01284Y01929D03*
X04985D03*
X01284Y03209D03*
G54D112*
X0149Y04129D03*
X04118Y05215D03*
X04454Y03776D03*
X0159Y05019D03*
X04442Y05079D03*
X04087Y05154D03*
X03475Y05175D03*
X04653Y039D03*
Y03827D03*
X01145Y04375D03*
Y04684D03*
X01597Y03754D03*
X01417Y04741D03*
X02513Y04835D03*
X0197Y04755D03*
X01635Y04598D03*
X0157Y04095D03*
Y04164D03*
X01635Y04729D03*
X0167Y04036D03*
X0201Y043D03*
X02772Y04055D03*
X01691Y04466D03*
Y04566D03*
X01427Y04425D03*
X0135Y046D03*
X02767Y0495D03*
X01276Y0479D03*
Y04837D03*
X0201Y04112D03*
X02935Y05039D03*
X02152D03*
X0207Y0508D03*
Y04859D03*
X0173Y0486D03*
X01818Y0512D03*
X01847Y04464D03*
X019Y04623D03*
Y0467D03*
X0177Y04241D03*
X0164D03*
X0319Y05092D03*
X02875Y04372D03*
X0244Y03971D03*
X03122Y05023D03*
X03775Y03935D03*
X04017Y04957D03*
X02248Y04514D03*
G54D113*
X04768Y04727D03*
X04102Y03958D03*
X02941Y04121D03*
X03217Y03771D03*
X0293D03*
X01572Y05175D03*
M02*