%FSTAX23Y23*%
%MOIN*%
%SFA1B1*%

%IPPOS*%
%ADD13C,0.015748*%
%ADD24R,0.023622X0.072835*%
%ADD45R,0.068898X0.049212*%
%ADD49C,0.019685*%
%ADD50C,0.011811*%
%ADD99C,0.078740*%
%ADD100C,0.039370*%
%ADD101C,0.059055*%
%ADD107C,0.098425*%
%ADD108C,0.068898*%
%ADD109O,0.062992X0.047244*%
%ADD110C,0.060000*%
%ADD111C,0.229921*%
%ADD112C,0.027559*%
%ADD113C,0.050000*%
%ADD114O,0.021654X0.080709*%
%ADD115O,0.080709X0.021654*%
%ADD116R,0.062992X0.082677*%
%ADD117R,0.053150X0.015748*%
%ADD118R,0.074803X0.074803*%
%ADD119R,1.796595X0.210000*%
%LNnixie_board_v2.0-1*%
%LPD*%
G36*
X02613Y05255D02*
X0261Y0525D01*
X02608Y05242*
X0261Y05235*
X02614Y05228*
X02614Y05228*
X02613Y05223*
X02348*
X02347Y05228*
X02347Y05228*
X02351Y05235*
X02353Y05242*
X02351Y0525*
X02348Y05255*
X02351Y0526*
X0261*
X02613Y05255*
G37*
G36*
X02317D02*
X02314Y0525D01*
X02312Y05242*
X02314Y05235*
X02318Y05228*
X02318Y05228*
X02317Y05223*
X02052*
X02051Y05228*
X02051Y05228*
X02055Y05235*
X02057Y05242*
X02055Y0525*
X02052Y05255*
X02055Y0526*
X02314*
X02317Y05255*
G37*
G36*
X05138Y0366D02*
X01118D01*
Y0526*
X02018*
X02021Y05255*
X02018Y0525*
X02016Y05242*
X02018Y05235*
X02022Y05228*
X02022Y05228*
X02021Y05223*
X01604*
X01598Y05222*
X01592Y05218*
X01579Y05205*
X01572Y05206*
X01564Y05205*
X01556Y05202*
X0155Y05197*
X01545Y05191*
X01542Y05183*
X01541Y05175*
X01542Y05167*
X01545Y05159*
X0155Y05153*
X01556Y05148*
X01564Y05145*
X01572Y05144*
X0158Y05145*
X01588Y05148*
X01594Y05153*
X01599Y05159*
X01602Y05167*
X01603Y05175*
X01602Y05183*
X0161Y05191*
X02021*
X02022Y05186*
X02022Y05186*
X02018Y05179*
X02016Y05171*
X02018Y05164*
X02022Y05157*
X02029Y05153*
X02036Y05151*
X02044Y05153*
X02051Y05157*
X02055Y05164*
X02057Y05171*
X02055Y05179*
X02051Y05186*
X02051Y05186*
X02052Y05191*
X02317*
X02318Y05186*
X02318Y05186*
X02314Y05179*
X02312Y05171*
X02314Y05164*
X02318Y05157*
X02325Y05153*
X02333Y05151*
X0234Y05153*
X02347Y05157*
X02351Y05164*
X02353Y05171*
X02351Y05179*
X02347Y05186*
X02347Y05186*
X02348Y05191*
X02613*
X02614Y05186*
X02614Y05186*
X0261Y05179*
X02608Y05171*
X0261Y05164*
X02614Y05157*
X02621Y05153*
X02629Y05151*
X02636Y05153*
X02643Y05157*
X02647Y05164*
X02649Y05171*
X02647Y05179*
X02643Y05186*
X02643Y05186*
X02644Y05191*
X03435*
X03455Y05171*
X03456Y05167*
X0346Y0516*
X03467Y05156*
X03475Y05154*
X03482Y05156*
X03489Y0516*
X03493Y05167*
X03495Y05175*
X03493Y05182*
X03489Y05189*
X03482Y05193*
X03478Y05194*
X03454Y05218*
X03448Y05222*
X03442Y05223*
X02644*
X02643Y05228*
X02643Y05228*
X02647Y05235*
X02649Y05242*
X02647Y0525*
X02644Y05255*
X02647Y0526*
X05138*
Y0366*
G37*
G36*
X04928Y03483D02*
X0493Y03483D01*
X04932Y03483*
X04934Y03482*
X04935Y03482*
X04937Y03481*
X04938Y0348*
X0494Y03479*
X04941Y03479*
X04942Y03478*
X04943Y03477*
X04944Y03477*
X04944Y03476*
X04945Y03476*
X04945Y03475*
X04945Y03475*
X04946Y03474*
X04948Y03472*
X04949Y03471*
X0495Y03469*
X0495Y03467*
X04951Y03466*
X04952Y03464*
X04952Y03463*
X04952Y03461*
X04953Y0346*
X04953Y03459*
X04953Y03458*
X04953Y03457*
X04953Y03456*
Y03456*
Y03456*
X04953Y03454*
X04953Y03452*
X04952Y0345*
X04952Y03448*
X04951Y03446*
X0495Y03445*
X0495Y03443*
X04949Y03442*
X04948Y0344*
X04948Y03439*
X04947Y03438*
X04946Y03438*
X04946Y03437*
X04945Y03437*
X04945Y03436*
X04945Y03436*
X04944Y03435*
X04942Y03434*
X0494Y03433*
X04939Y03432*
X04937Y03431*
X04936Y0343*
X04934Y0343*
X04933Y03429*
X04931Y03429*
X0493Y03429*
X04929Y03428*
X04928Y03428*
X04927Y03428*
X04927Y03428*
X04926*
X04924Y03428*
X04922Y03429*
X0492Y03429*
X04918Y0343*
X04917Y0343*
X04916Y0343*
X04916Y0343*
X04915Y0343*
X04915Y0343*
X04915Y03431*
X04915Y03431*
X04914*
X04912Y03432*
X04911Y03433*
X04909Y03434*
X04908Y03436*
X04907Y03437*
X04906Y03438*
X04905Y03438*
X04905Y03438*
X04905Y03438*
X04905Y03439*
Y0343*
X04898*
Y03482*
X04905*
Y03472*
X04906Y03474*
X04908Y03476*
X0491Y03477*
X04911Y03479*
X04912Y0348*
X04913Y0348*
X04913Y0348*
X04914Y0348*
X04914Y03481*
X04914Y03481*
X04914*
X04916Y03482*
X04918Y03482*
X0492Y03483*
X04922Y03483*
X04923Y03483*
X04924Y03483*
X04924Y03483*
X04925Y03483*
X04926*
X04928Y03483*
G37*
G36*
X04871Y03457D02*
X04891Y0343D01*
X04883*
X04867Y03452*
X04851Y0343*
X04842*
X04863Y03457*
X04845Y03482*
X04853*
X04867Y03463*
X04881Y03482*
X04889*
X04871Y03457*
G37*
G36*
X05044Y0343D02*
X05037D01*
X0503Y03481*
X05005Y0343*
X05003*
X04977Y0348*
X0497Y0343*
X04963*
X04974Y03501*
X04975*
X05004Y03442*
X05032Y03501*
X05034*
X05044Y0343*
G37*
G36*
X0509Y03494D02*
X05074D01*
Y0343*
X05067*
Y03494*
X05051*
Y03501*
X0509*
Y03494*
G37*
%LNnixie_board_v2.0-2*%
%LPC*%
G36*
X04123Y05238D02*
Y0522D01*
X04141*
X0414Y05224*
X04135Y05232*
X04127Y05237*
X04123Y05238*
G37*
G36*
X04113D02*
X04108Y05237D01*
X041Y05232*
X04095Y05224*
X04094Y0522*
X04113*
Y05238*
G37*
G36*
X04141Y0521D02*
X04123D01*
Y05191*
X04127Y05192*
X04135Y05197*
X0414Y05205*
X04141Y0521*
G37*
G36*
X04113D02*
X04094D01*
X04095Y05205*
X041Y05197*
X04108Y05192*
X04113Y05191*
Y0521*
G37*
G36*
X0499Y05223D02*
Y05103D01*
X0511*
X05109Y05118*
X05105Y05137*
X05097Y05155*
X05087Y05172*
X05074Y05187*
X05059Y052*
X05042Y0521*
X05024Y05217*
X05005Y05222*
X0499Y05223*
G37*
G36*
X0498D02*
X04966Y05222D01*
X04947Y05217*
X04929Y0521*
X04912Y052*
X04897Y05187*
X04884Y05172*
X04874Y05155*
X04866Y05137*
X04862Y05118*
X04861Y05103*
X0498*
Y05223*
G37*
G36*
X01289D02*
Y05103D01*
X01408*
X01407Y05118*
X01403Y05137*
X01395Y05155*
X01385Y05172*
X01372Y05187*
X01357Y052*
X0134Y0521*
X01322Y05217*
X01303Y05222*
X01289Y05223*
G37*
G36*
X01279D02*
X01264Y05222D01*
X01245Y05217*
X01227Y0521*
X0121Y052*
X01195Y05187*
X01182Y05172*
X01172Y05155*
X01164Y05137*
X0116Y05118*
X01159Y05103*
X01279*
Y05223*
G37*
G36*
X04447Y05102D02*
Y05084D01*
X04465*
X04464Y05088*
X04459Y05096*
X04451Y05101*
X04447Y05102*
G37*
G36*
X04437D02*
X04432Y05101D01*
X04424Y05096*
X04419Y05088*
X04418Y05084*
X04437*
Y05102*
G37*
G36*
X01818Y0514D02*
X0181Y05138D01*
X01803Y05134*
X01799Y05127*
X01797Y0512*
X01799Y05112*
X01803Y05105*
X0181Y05101*
X01818Y05099*
X01825Y05101*
X01832Y05105*
X01833Y05107*
X03157*
X0317Y05094*
X03169Y05092*
X03171Y05084*
X03175Y05078*
X03182Y05073*
X0319Y05072*
X03197Y05073*
X03204Y05078*
X03208Y05084*
X0321Y05092*
X03208Y051*
X03204Y05106*
X03197Y05111*
X0319Y05112*
X03187Y05112*
X0317Y05128*
X03167Y05131*
X03162Y05132*
X01833*
X01832Y05134*
X01825Y05138*
X01818Y0514*
G37*
G36*
X04465Y05074D02*
X04447D01*
Y05055*
X04451Y05056*
X04459Y05062*
X04464Y05069*
X04465Y05074*
G37*
G36*
X04437D02*
X04418D01*
X04419Y05069*
X04424Y05062*
X04432Y05056*
X04437Y05055*
Y05074*
G37*
G36*
X02935Y0506D02*
X02928Y05058D01*
X02921Y05054*
X0292Y05052*
X02168*
X02167Y05054*
X0216Y05058*
X02152Y0506*
X02145Y05058*
X02138Y05054*
X02134Y05047*
X02132Y05039*
X02134Y05032*
X02138Y05025*
X02145Y05021*
X02152Y05019*
X0216Y05021*
X02167Y05025*
X02168Y05027*
X0292*
X02921Y05025*
X02928Y05021*
X02935Y05019*
X02943Y05021*
X0295Y05025*
X02954Y05032*
X02956Y05039*
X02954Y05047*
X0295Y05054*
X02943Y05058*
X02935Y0506*
G37*
G36*
X03127Y05046D02*
Y05028D01*
X03145*
X03144Y05032*
X03139Y0504*
X03131Y05046*
X03127Y05046*
G37*
G36*
X03117D02*
X03113Y05046D01*
X03105Y0504*
X031Y05032*
X03099Y05028*
X03117*
Y05046*
G37*
G36*
X03145Y05018D02*
X03127D01*
Y05*
X03131Y05001*
X03139Y05006*
X03144Y05014*
X03145Y05018*
G37*
G36*
X03117D02*
X03099D01*
X031Y05014*
X03105Y05006*
X03113Y05001*
X03117Y05*
Y05018*
G37*
G36*
X0159Y0504D02*
X01582Y05038D01*
X01576Y05034*
X01574Y05031*
X0157*
X01565Y05031*
X01561Y05028*
X01531Y04998*
X01528Y04994*
X01527Y04989*
Y04114*
X01528Y04109*
X01531Y04105*
X0155Y04087*
X01553Y04084*
X01556Y04081*
X01562Y04077*
X0157Y04075*
X01578Y04077*
X01584Y04081*
X01588Y04087*
X0159Y04095*
X01588Y04103*
X01584Y04109*
X01578Y04114*
X0157Y04115*
X01562Y04114*
X01559Y04112*
X01552Y04119*
Y04147*
X01557Y04149*
X01562Y04146*
X0157Y04144*
X01578Y04146*
X01584Y0415*
X01588Y04156*
X0159Y04164*
X01588Y04172*
X01584Y04178*
X01582Y0418*
Y04659*
X01632Y04709*
X01635Y04708*
X01642Y0471*
X01649Y04714*
X01653Y04721*
X01655Y04729*
X01653Y04736*
X01649Y04743*
X01642Y04747*
X01635Y04749*
X01627Y04747*
X0162Y04743*
X01616Y04736*
X01614Y04729*
X01615Y04726*
X01561Y04672*
X01559Y04668*
X01558Y04664*
Y04184*
X01557Y04183*
X01552Y04186*
Y04984*
X01573Y05005*
X01576Y05005*
X01582Y05001*
X0159Y04999*
X01598Y05001*
X01604Y05005*
X01608Y05012*
X0161Y05019*
X01608Y05027*
X01604Y05034*
X01598Y05038*
X0159Y0504*
G37*
G36*
X0511Y05093D02*
X0499D01*
Y04973*
X05005Y04974*
X05024Y04979*
X05042Y04987*
X05059Y04997*
X05074Y0501*
X05087Y05025*
X05097Y05041*
X05105Y0506*
X05109Y05079*
X0511Y05093*
G37*
G36*
X01408D02*
X01289D01*
Y04973*
X01303Y04974*
X01322Y04979*
X0134Y04987*
X01357Y04997*
X01372Y0501*
X01385Y05025*
X01395Y05041*
X01403Y0506*
X01407Y05079*
X01408Y05093*
G37*
G36*
X01279D02*
X01159D01*
X0116Y05079*
X01164Y0506*
X01172Y05041*
X01182Y05025*
X01195Y0501*
X0121Y04997*
X01227Y04987*
X01245Y04979*
X01264Y04974*
X01279Y04973*
Y05093*
G37*
G36*
X0498D02*
X04861D01*
X04862Y05079*
X04866Y0506*
X04874Y05041*
X04884Y05025*
X04897Y0501*
X04912Y04997*
X04929Y04987*
X04947Y04979*
X04966Y04974*
X0498Y04973*
Y05093*
G37*
G36*
X02772Y04973D02*
Y04955D01*
X0279*
X02789Y04959*
X02784Y04967*
X02776Y04972*
X02772Y04973*
G37*
G36*
X02762D02*
X02757Y04972D01*
X02749Y04967*
X02744Y04959*
X02743Y04955*
X02762*
Y04973*
G37*
G36*
X0207Y051D02*
X02062Y05098D01*
X02055Y05094*
X02051Y05087*
X02049Y0508*
X02051Y05072*
X02055Y05065*
X02062Y05061*
X0207Y05059*
X02077Y05061*
X02084Y05065*
X02085Y05067*
X0313*
X03153Y05044*
Y05044*
X03157Y05042*
X03162Y05041*
X03974*
X04005Y0501*
Y04973*
X04003Y04972*
X03999Y04965*
X03997Y04957*
X03999Y0495*
X04003Y04943*
X0401Y04939*
X04017Y04937*
X04025Y04939*
X04031Y04943*
X04036Y0495*
X04037Y04957*
X04036Y04965*
X04031Y04972*
X04029Y04973*
Y05015*
X04028Y05019*
X04026Y05023*
X03988Y05061*
X03984Y05064*
X03979Y05065*
X03979*
X03167*
X03144Y05088*
X0314Y05091*
X03135Y05092*
X02085*
X02084Y05094*
X02077Y05098*
X0207Y051*
G37*
G36*
X0279Y04945D02*
X02772D01*
Y04926*
X02776Y04927*
X02784Y04932*
X02789Y0494*
X0279Y04945*
G37*
G36*
X02762D02*
X02743D01*
X02744Y0494*
X02749Y04932*
X02757Y04927*
X02762Y04926*
Y04945*
G37*
G36*
X0207Y04879D02*
X02062Y04878D01*
X02055Y04873*
X02054Y04871*
X01839*
X01835Y0487*
X01831Y04868*
X01721Y04758*
X01718Y04754*
X01717Y0475*
Y0451*
X01693Y04486*
X01691Y04486*
X01683Y04485*
X01677Y0448*
X01672Y04474*
X01671Y04466*
X01672Y04459*
X01677Y04452*
X01683Y04448*
X01691Y04446*
X01699Y04448*
X01705Y04452*
X01709Y04459*
X01711Y04466*
X0171Y04469*
X01738Y04496*
X01741Y045*
X01742Y04505*
Y04744*
X01844Y04847*
X02054*
X02055Y04845*
X02062Y04841*
X0207Y04839*
X02077Y04841*
X02084Y04845*
X02088Y04851*
X0209Y04859*
X02088Y04867*
X02084Y04873*
X02077Y04878*
X0207Y04879*
G37*
G36*
X0173Y0488D02*
X01722Y04878D01*
X01715Y04874*
X01711Y04867*
X01709Y0486*
X0171Y04857*
X01682Y04829*
X0168Y04825*
X01679Y04821*
Y04581*
X01677Y0458*
X01672Y04573*
X01671Y04566*
X01672Y04558*
X01677Y04551*
X01683Y04547*
X01691Y04545*
X01699Y04547*
X01705Y04551*
X01709Y04558*
X01711Y04566*
X01709Y04573*
X01705Y0458*
X01703Y04581*
Y04816*
X01727Y0484*
X0173Y04839*
X01737Y04841*
X01744Y04845*
X01748Y04852*
X0175Y0486*
X01748Y04867*
X01744Y04874*
X01737Y04878*
X0173Y0488*
G37*
G36*
X01276Y04857D02*
X01268Y04855D01*
X01262Y04851*
X01257Y04844*
X01256Y04837*
X01257Y04829*
X01262Y04822*
X01268Y04818*
X01276Y04817*
X01284Y04818*
X0129Y04822*
X01292Y04823*
X01297Y04818*
Y04802*
X01292Y04801*
X0129Y04804*
X01284Y04808*
X01276Y0481*
X01268Y04808*
X01262Y04804*
X01257Y04797*
X01256Y0479*
X01257Y04782*
X01262Y04775*
X01264Y04774*
Y04385*
X01265Y04381*
X01267Y04377*
X01303Y04341*
X01307Y04338*
X01312Y04337*
X01372*
X01387Y04322*
Y04166*
X01383Y04162*
X01328*
Y04187*
Y04215*
X01309*
Y04228*
X01328*
Y0425*
X0133Y04253*
X01335Y04264*
X01336Y04275*
X01335Y04287*
X0133Y04298*
X01328Y04301*
Y04323*
X01253*
Y04321*
X01235*
X01233Y04322*
Y04344*
X01204*
X01202Y04345*
X0119Y04347*
X01178Y04345*
X01176Y04344*
X01147*
Y04315*
X01146Y04313*
X01144Y04301*
Y04197*
Y04102*
Y03998*
X01146Y03986*
X01147Y03984*
Y03955*
X01176*
X01178Y03954*
X0119Y03952*
X01202Y03954*
X01204Y03955*
X01233*
Y03977*
X01235Y03978*
X01253*
Y03976*
X01328*
X01331Y03978*
X01519Y0379*
X01526Y03784*
X01535Y03781*
X01544Y0378*
X01584*
X01585Y03775*
X01579Y03771*
X01574Y03763*
X01573Y03759*
X0162*
X01619Y03763*
X01614Y03771*
X01608Y03775*
X01609Y0378*
X02871*
X02904Y03746*
X02912Y0374*
X0292Y03737*
X0293Y03736*
X02939Y03737*
X02947Y0374*
X02955Y03746*
X02961Y03754*
X02964Y03762*
X02965Y03771*
X02964Y03781*
X02961Y03789*
X02955Y03797*
X02911Y03841*
X02903Y03847*
X02896Y0385*
X02895Y03855*
X02895Y03855*
X02903Y03859*
X02911Y03864*
X02966Y03919*
X02972Y03927*
X02975Y03935*
X02976Y03945*
Y04121*
X02975Y0413*
X02972Y04139*
X02966Y04146*
X02958Y04152*
X0295Y04156*
X02941Y04157*
X02931Y04156*
X02923Y04152*
X02915Y04146*
X02909Y04139*
X02906Y0413*
X02905Y04121*
Y03959*
X02871Y03925*
X01613*
X01439Y04099*
X01431Y04105*
X01423Y04109*
X01413Y0411*
X01411Y0411*
X01409Y04114*
X01411Y04115*
X01433Y04138*
X01436Y04142*
X01437Y04146*
Y04341*
X01436Y04345*
X01433Y04349*
X01398Y04384*
X01394Y04387*
X0139Y04388*
X01331*
X01322Y04397*
Y04592*
X01327Y04593*
X01327Y0459*
X01332Y04582*
X0134Y04577*
X01345Y04576*
Y046*
Y04623*
X0134Y04622*
X01332Y04617*
X01327Y04609*
X01327Y04606*
X01322Y04607*
Y04823*
X01321Y04827*
X01318Y04831*
X01304Y04845*
X013Y04848*
X01296Y04849*
X01292*
X0129Y04851*
X01284Y04855*
X01276Y04857*
G37*
G36*
X01975Y04778D02*
Y0476D01*
X01993*
X01992Y04764*
X01987Y04772*
X01979Y04777*
X01975Y04778*
G37*
G36*
X01965D02*
X0196Y04777D01*
X01952Y04772*
X01947Y04764*
X01946Y0476*
X01965*
Y04778*
G37*
G36*
X01422Y04764D02*
Y04746D01*
X0144*
X01439Y0475*
X01434Y04758*
X01426Y04764*
X01422Y04764*
G37*
G36*
X01412D02*
X01408Y04764D01*
X014Y04758*
X01394Y0475*
X01394Y04746*
X01412*
Y04764*
G37*
G36*
X04773Y04762D02*
Y04732D01*
X04802*
X04802Y04737*
X04798Y04745*
X04792Y04752*
X04785Y04758*
X04777Y04762*
X04773Y04762*
G37*
G36*
X04763D02*
X04758Y04762D01*
X0475Y04758*
X04743Y04752*
X04737Y04745*
X04733Y04737*
X04733Y04732*
X04763*
Y04762*
G37*
G36*
X01993Y0475D02*
X01975D01*
Y04731*
X01979Y04732*
X01987Y04737*
X01992Y04745*
X01993Y0475*
G37*
G36*
X01965D02*
X01946D01*
X01947Y04745*
X01952Y04737*
X0196Y04732*
X01965Y04731*
Y0475*
G37*
G36*
X02513Y04855D02*
X02505Y04853D01*
X02498Y04849*
X02494Y04842*
X02492Y04835*
X02494Y04827*
X02495Y04826*
X02394Y04725*
X02024*
X0202Y04724*
X02016Y04721*
X02001Y04707*
X01998Y04703*
X01997Y04698*
X01998Y04697*
Y04315*
X01995Y04314*
X01991Y04307*
X0199Y043*
X01991Y04292*
X01995Y04285*
X02002Y04281*
X0201Y04279*
X02017Y04281*
X02024Y04285*
X02028Y04292*
X0203Y043*
X02028Y04307*
X02024Y04314*
X02022Y04315*
Y04693*
X02029Y04701*
X02399*
X02404Y04702*
X02408Y04704*
X02519Y04816*
X0252Y04816*
X02527Y0482*
X02531Y04827*
X02532Y0483*
X02532Y0483*
X02533Y04835*
X02532Y04839*
X02532Y04839*
X02531Y04842*
X02527Y04849*
X0252Y04853*
X02513Y04855*
G37*
G36*
X0144Y04736D02*
X01422D01*
Y04718*
X01426Y04719*
X01434Y04724*
X01439Y04732*
X0144Y04736*
G37*
G36*
X01412D02*
X01394D01*
X01394Y04732*
X014Y04724*
X01408Y04719*
X01412Y04718*
Y04736*
G37*
G36*
X04802Y04722D02*
X04773D01*
Y04693*
X04777Y04693*
X04785Y04697*
X04792Y04702*
X04798Y0471*
X04802Y04718*
X04802Y04722*
G37*
G36*
X04763D02*
X04733D01*
X04733Y04718*
X04737Y0471*
X04743Y04702*
X0475Y04697*
X04758Y04693*
X04763Y04693*
Y04722*
G37*
G36*
X019Y0469D02*
X01892Y04688D01*
X01885Y04684*
X01881Y04677*
X01879Y0467*
X01881Y04662*
X01885Y04655*
X01892Y04651*
X019Y04649*
X01907Y04651*
X01913Y04655*
X01924Y04644*
Y04629*
X01919Y04629*
X01918Y04631*
X01914Y04638*
X01907Y04642*
X019Y04643*
X01892Y04642*
X01885Y04638*
X01884Y04635*
X01871*
X01867Y04635*
X01863Y04632*
X01838Y04607*
X01836Y04604*
X01835Y04599*
Y0448*
X01832Y04478*
X01828Y04472*
X01827Y04464*
X01828Y04456*
X01832Y0445*
X01839Y04445*
X01847Y04444*
X01854Y04445*
X01861Y0445*
X01865Y04456*
X01867Y04464*
X01865Y04472*
X01861Y04478*
X01859Y0448*
Y04594*
X01876Y04611*
X01884*
X01885Y04609*
X01892Y04605*
X019Y04603*
X01907Y04605*
X01914Y04609*
X01918Y04616*
X01919Y04618*
X01924Y04617*
Y04253*
X01785*
X01784Y04255*
X01777Y0426*
X0177Y04261*
X01762Y0426*
X01755Y04255*
X01751Y04249*
X01749Y04241*
X01751Y04234*
X01755Y04227*
X01762Y04223*
X0177Y04221*
X01777Y04223*
X01784Y04227*
X01785Y04229*
X02132*
X02172Y04189*
X02176Y04186*
X02181Y04185*
X02264*
X02266Y0418*
X02261Y04176*
X02254Y04168*
X0225Y04158*
X02249Y04147*
X0225Y04137*
X02254Y04127*
X02261Y04118*
X02269Y04112*
X02279Y04108*
X0229Y04106*
X023Y04108*
X0231Y04112*
X02318Y04118*
X02325Y04127*
X02329Y04137*
X0233Y04147*
X02329Y04158*
X02325Y04168*
X02318Y04176*
X02313Y0418*
X02315Y04185*
X02364*
X02366Y0418*
X02361Y04176*
X02354Y04168*
X0235Y04158*
X02349Y04147*
X0235Y04137*
X02354Y04127*
X02361Y04118*
X02369Y04112*
X02379Y04108*
X0239Y04106*
X024Y04108*
X0241Y04112*
X02418Y04118*
X02425Y04127*
X02429Y04137*
X0243Y04147*
X02429Y04158*
X02425Y04168*
X02418Y04176*
X02413Y0418*
X02415Y04185*
X02434*
X02454Y04166*
X0245Y04158*
X02449Y04147*
X0245Y04137*
X02454Y04127*
X02461Y04118*
X02469Y04112*
X02479Y04108*
X0249Y04106*
X025Y04108*
X0251Y04112*
X02518Y04118*
X02525Y04127*
X02529Y04137*
X0253Y04147*
X02529Y04158*
X02525Y04168*
X02518Y04176*
X0251Y04183*
X025Y04187*
X0249Y04188*
X02479Y04187*
X02471Y04183*
X02448Y04206*
X02444Y04209*
X02439Y04209*
X02415*
X02413Y04214*
X02418Y04218*
X02425Y04227*
X02429Y04237*
X0243Y04247*
X02429Y04258*
X02425Y04268*
X02418Y04276*
X0241Y04283*
X024Y04287*
X0239Y04288*
X02379Y04287*
X02369Y04283*
X02361Y04276*
X02354Y04268*
X0235Y04258*
X02349Y04247*
X0235Y04237*
X02354Y04227*
X02361Y04218*
X02366Y04214*
X02364Y04209*
X02321*
X0232Y04214*
X02321Y04215*
X02328Y04225*
X02333Y04236*
X02334Y04242*
X02245*
X02246Y04236*
X02251Y04225*
X02258Y04215*
X02259Y04214*
X02258Y04209*
X02186*
X02145Y0425*
X02141Y04252*
X02137Y04253*
X01948*
Y0465*
X01947Y04654*
X01944Y04658*
X01924Y04678*
X0192Y04681*
X01916Y04682*
X01915*
X01914Y04684*
X01907Y04688*
X019Y0469*
G37*
G36*
X01355Y04623D02*
Y04605D01*
X01373*
X01372Y04609*
X01367Y04617*
X01359Y04622*
X01355Y04623*
G37*
G36*
X0164Y04621D02*
Y04603D01*
X01658*
X01657Y04607*
X01652Y04615*
X01644Y04621*
X0164Y04621*
G37*
G36*
X0163D02*
X01625Y04621D01*
X01617Y04615*
X01612Y04607*
X01611Y04603*
X0163*
Y04621*
G37*
G36*
X01373Y04595D02*
X01355D01*
Y04576*
X01359Y04577*
X01367Y04582*
X01372Y0459*
X01373Y04595*
G37*
G36*
X01658Y04593D02*
X0164D01*
Y04575*
X01644Y04576*
X01652Y04581*
X01657Y04589*
X01658Y04593*
G37*
G36*
X0163D02*
X01611D01*
X01612Y04589*
X01617Y04581*
X01625Y04576*
X0163Y04575*
Y04593*
G37*
G36*
X02253Y04538D02*
Y04519D01*
X02271*
X0227Y04524*
X02265Y04532*
X02257Y04537*
X02253Y04538*
G37*
G36*
X02243D02*
X02239Y04537D01*
X02231Y04532*
X02225Y04524*
X02225Y04519*
X02243*
Y04538*
G37*
G36*
X02271Y04509D02*
X02253D01*
Y04491*
X02257Y04492*
X02265Y04497*
X0227Y04505*
X02271Y04509*
G37*
G36*
X02243D02*
X02225D01*
X02225Y04505*
X02231Y04497*
X02239Y04492*
X02243Y04491*
Y04509*
G37*
G36*
X01432Y04449D02*
Y0443D01*
X01451*
X0145Y04435*
X01444Y04442*
X01437Y04448*
X01432Y04449*
G37*
G36*
X01422D02*
X01418Y04448D01*
X0141Y04442*
X01405Y04435*
X01404Y0443*
X01422*
Y04449*
G37*
G36*
X01451Y0442D02*
X01432D01*
Y04402*
X01437Y04403*
X01444Y04408*
X0145Y04416*
X01451Y0442*
G37*
G36*
X01422D02*
X01404D01*
X01405Y04416*
X0141Y04408*
X01418Y04403*
X01422Y04402*
Y0442*
G37*
G36*
X0288Y04395D02*
Y04377D01*
X02898*
X02897Y04381*
X02892Y04389*
X02884Y04394*
X0288Y04395*
G37*
G36*
X0287D02*
X02866Y04394D01*
X02858Y04389*
X02853Y04381*
X02852Y04377*
X0287*
Y04395*
G37*
G36*
X01145Y04704D02*
X01137Y04702D01*
X0113Y04698*
X01126Y04691*
X01124Y04684*
X01126Y04676*
X0113Y04669*
X01132Y04668*
Y0439*
X0113Y04389*
X01126Y04382*
X01124Y04375*
X01126Y04367*
X0113Y04361*
X01137Y04356*
X01145Y04355*
X01152Y04356*
X01159Y04361*
X01163Y04367*
X01165Y04375*
X01163Y04382*
X01159Y04389*
X01157Y0439*
Y04668*
X01159Y04669*
X01163Y04676*
X01165Y04684*
X01163Y04691*
X01159Y04698*
X01152Y04702*
X01145Y04704*
G37*
G36*
X02898Y04367D02*
X0288D01*
Y04349*
X02884Y04349*
X02892Y04355*
X02897Y04362*
X02898Y04367*
G37*
G36*
X0287D02*
X02852D01*
X02853Y04362*
X02858Y04355*
X02866Y04349*
X0287Y04349*
Y04367*
G37*
G36*
X02295Y04291D02*
Y04252D01*
X02334*
X02333Y04259*
X02328Y0427*
X02321Y04279*
X02312Y04286*
X02301Y0429*
X02295Y04291*
G37*
G36*
X02285D02*
X02278Y0429D01*
X02267Y04286*
X02258Y04279*
X02251Y0427*
X02246Y04259*
X02245Y04252*
X02285*
Y04291*
G37*
G36*
X01645Y04264D02*
Y04246D01*
X01663*
X01662Y04251*
X01657Y04258*
X01649Y04264*
X01645Y04264*
G37*
G36*
X01635D02*
X0163Y04264D01*
X01622Y04258*
X01617Y04251*
X01616Y04246*
X01635*
Y04264*
G37*
G36*
X01663Y04236D02*
X01645D01*
Y04218*
X01649Y04219*
X01657Y04224*
X01662Y04232*
X01663Y04236*
G37*
G36*
X01635D02*
X01616D01*
X01617Y04232*
X01622Y04224*
X0163Y04219*
X01635Y04218*
Y04236*
G37*
G36*
X0259Y04288D02*
X02579Y04287D01*
X02569Y04283*
X02561Y04276*
X02554Y04268*
X0255Y04258*
X02549Y04247*
X0255Y04237*
X02554Y04227*
X02561Y04218*
X02569Y04212*
X02579Y04208*
X0259Y04206*
X026Y04208*
X0261Y04212*
X02618Y04218*
X02625Y04227*
X02629Y04237*
X0263Y04247*
X02629Y04258*
X02625Y04268*
X02618Y04276*
X0261Y04283*
X026Y04287*
X0259Y04288*
G37*
G36*
X0249D02*
X02479Y04287D01*
X02469Y04283*
X02461Y04276*
X02454Y04268*
X0245Y04258*
X02449Y04247*
X0245Y04237*
X02454Y04227*
X02461Y04218*
X02469Y04212*
X02479Y04208*
X0249Y04206*
X025Y04208*
X0251Y04212*
X02518Y04218*
X02525Y04227*
X02529Y04237*
X0253Y04247*
X02529Y04258*
X02525Y04268*
X02518Y04276*
X0251Y04283*
X025Y04287*
X0249Y04288*
G37*
G36*
X01495Y04153D02*
Y04134D01*
X01514*
X01513Y04139*
X01508Y04147*
X015Y04152*
X01495Y04153*
G37*
G36*
X01485D02*
X01481Y04152D01*
X01473Y04147*
X01468Y04139*
X01467Y04134*
X01485*
Y04153*
G37*
G36*
X02015Y04136D02*
Y04117D01*
X02033*
X02032Y04122*
X02027Y04129*
X02019Y04135*
X02015Y04136*
G37*
G36*
X02005D02*
X02Y04135D01*
X01992Y04129*
X01987Y04122*
X01986Y04117*
X02005*
Y04136*
G37*
G36*
X0259Y04188D02*
X02579Y04187D01*
X02569Y04183*
X02561Y04176*
X02554Y04168*
X0255Y04158*
X02549Y04147*
X0255Y04137*
X02554Y04127*
X02561Y04118*
X02569Y04112*
X02579Y04108*
X0259Y04106*
X026Y04108*
X0261Y04112*
X02618Y04118*
X02625Y04127*
X02629Y04137*
X0263Y04147*
X02629Y04158*
X02625Y04168*
X02618Y04176*
X0261Y04183*
X026Y04187*
X0259Y04188*
G37*
G36*
X01514Y04124D02*
X01495D01*
Y04106*
X015Y04107*
X01508Y04112*
X01513Y0412*
X01514Y04124*
G37*
G36*
X01485D02*
X01467D01*
X01468Y0412*
X01473Y04112*
X01481Y04107*
X01485Y04106*
Y04124*
G37*
G36*
X02033Y04107D02*
X02015D01*
Y04089*
X02019Y0409*
X02027Y04095*
X02032Y04103*
X02033Y04107*
G37*
G36*
X02005D02*
X01986D01*
X01987Y04103*
X01992Y04095*
X02Y0409*
X02005Y04089*
Y04107*
G37*
G36*
X02777Y04078D02*
Y0406D01*
X02795*
X02794Y04064*
X02789Y04072*
X02781Y04077*
X02777Y04078*
G37*
G36*
X02767D02*
X02762Y04077D01*
X02754Y04072*
X02749Y04064*
X02748Y0406*
X02767*
Y04078*
G37*
G36*
X01675Y04059D02*
Y04041D01*
X01693*
X01692Y04045*
X01687Y04053*
X01679Y04058*
X01675Y04059*
G37*
G36*
X01665D02*
X0166Y04058D01*
X01652Y04053*
X01647Y04045*
X01646Y04041*
X01665*
Y04059*
G37*
G36*
X02795Y0405D02*
X02777D01*
Y04031*
X02781Y04032*
X02789Y04037*
X02794Y04045*
X02795Y0405*
G37*
G36*
X02767D02*
X02748D01*
X02749Y04045*
X02754Y04037*
X02762Y04032*
X02767Y04031*
Y0405*
G37*
G36*
X01693Y04031D02*
X01675D01*
Y04012*
X01679Y04013*
X01687Y04018*
X01692Y04026*
X01693Y04031*
G37*
G36*
X01665D02*
X01646D01*
X01647Y04026*
X01652Y04018*
X0166Y04013*
X01665Y04012*
Y04031*
G37*
G36*
X02445Y03994D02*
Y03976D01*
X02463*
X02462Y0398*
X02457Y03988*
X02449Y03993*
X02445Y03994*
G37*
G36*
X02435D02*
X0243Y03993D01*
X02422Y03988*
X02417Y0398*
X02416Y03976*
X02435*
Y03994*
G37*
G36*
X04107Y03992D02*
Y03963D01*
X04136*
X04136Y03967*
X04132Y03975*
X04127Y03983*
X04119Y03988*
X04111Y03992*
X04107Y03992*
G37*
G36*
X04097D02*
X04093Y03992D01*
X04084Y03988*
X04077Y03983*
X04071Y03975*
X04068Y03967*
X04067Y03963*
X04097*
Y03992*
G37*
G36*
X02463Y03966D02*
X02445D01*
Y03947*
X02449Y03948*
X02457Y03953*
X02462Y03961*
X02463Y03966*
G37*
G36*
X02435D02*
X02416D01*
X02417Y03961*
X02422Y03953*
X0243Y03948*
X02435Y03947*
Y03966*
G37*
G36*
X0378Y03958D02*
Y0394D01*
X03798*
X03797Y03944*
X03792Y03952*
X03784Y03957*
X0378Y03958*
G37*
G36*
X0377D02*
X03765Y03957D01*
X03757Y03952*
X03752Y03944*
X03751Y0394*
X0377*
Y03958*
G37*
G36*
X04136Y03953D02*
X04107D01*
Y03923*
X04111Y03923*
X04119Y03927*
X04127Y03933*
X04132Y0394*
X04136Y03948*
X04136Y03953*
G37*
G36*
X04097D02*
X04067D01*
X04068Y03948*
X04071Y0394*
X04077Y03933*
X04084Y03927*
X04093Y03923*
X04097Y03923*
Y03953*
G37*
G36*
X03798Y0393D02*
X0378D01*
Y03912*
X03784Y03913*
X03792Y03918*
X03797Y03926*
X03798Y0393*
G37*
G36*
X0377D02*
X03751D01*
X03752Y03926*
X03757Y03918*
X03765Y03913*
X0377Y03912*
Y0393*
G37*
G36*
X04658Y03923D02*
Y03905D01*
X04676*
X04676Y03909*
X0467Y03917*
X04662Y03922*
X04658Y03923*
G37*
G36*
X04648D02*
X04644Y03922D01*
X04636Y03917*
X04631Y03909*
X0463Y03905*
X04648*
Y03923*
G37*
G36*
X04676Y03895D02*
X04658D01*
Y03876*
X04662Y03877*
X0467Y03882*
X04676Y0389*
X04676Y03895*
G37*
G36*
X04648D02*
X0463D01*
X04631Y0389*
X04636Y03882*
X04644Y03877*
X04648Y03876*
Y03895*
G37*
G36*
X04658Y0385D02*
Y03832D01*
X04676*
X04676Y03836*
X0467Y03844*
X04662Y03849*
X04658Y0385*
G37*
G36*
X04648D02*
X04644Y03849D01*
X04636Y03844*
X04631Y03836*
X0463Y03832*
X04648*
Y0385*
G37*
G36*
X01289Y03943D02*
Y03823D01*
X01408*
X01407Y03838*
X01403Y03857*
X01395Y03875*
X01385Y03892*
X01372Y03907*
X01357Y0392*
X0134Y0393*
X01322Y03938*
X01303Y03942*
X01289Y03943*
G37*
G36*
X01279D02*
X01264Y03942D01*
X01245Y03938*
X01227Y0393*
X0121Y0392*
X01195Y03907*
X01182Y03892*
X01172Y03875*
X01164Y03857*
X0116Y03838*
X01159Y03823*
X01279*
Y03943*
G37*
G36*
X0499D02*
Y03823D01*
X0511*
X05109Y03838*
X05105Y03857*
X05097Y03875*
X05087Y03892*
X05074Y03907*
X05059Y0392*
X05042Y0393*
X05024Y03938*
X05005Y03942*
X0499Y03943*
G37*
G36*
X0498D02*
X04966Y03942D01*
X04947Y03938*
X04929Y0393*
X04912Y0392*
X04897Y03907*
X04884Y03892*
X04874Y03875*
X04866Y03857*
X04862Y03838*
X04861Y03823*
X0498*
Y03943*
G37*
G36*
X04676Y03822D02*
X04658D01*
Y03804*
X04662Y03805*
X0467Y0381*
X04676Y03818*
X04676Y03822*
G37*
G36*
X04648D02*
X0463D01*
X04631Y03818*
X04636Y0381*
X04644Y03805*
X04648Y03804*
Y03822*
G37*
G36*
X04087Y05175D02*
X0408Y05173D01*
X04073Y05169*
X04069Y05162*
X04067Y05154*
X04069Y05147*
X04073Y0514*
X0408Y05136*
X04087Y05134*
X04087Y05134*
X04107Y05114*
X04112Y05111*
X04117Y0511*
X04763*
X04811Y05063*
Y03807*
X04794Y0379*
X04469*
X04469Y0379*
X04462Y03794*
X04454Y03796*
X04447Y03794*
X0444Y0379*
X04436Y03783*
X04434Y03776*
X04436Y03768*
X0444Y03761*
X04447Y03757*
X04454Y03755*
X04462Y03757*
X04469Y03761*
X04469Y03761*
X048*
X04805Y03762*
X0481Y03766*
X04835Y03791*
X04838Y03796*
X04839Y03801*
Y05068*
X04838Y05074*
X04835Y05078*
X04779Y05135*
X04775Y05138*
X04769Y05139*
X04123*
X04107Y05154*
X04107Y05154*
X04106Y05162*
X04102Y05169*
X04095Y05173*
X04087Y05175*
G37*
G36*
X03222Y03806D02*
Y03776D01*
X03251*
X03251Y03781*
X03247Y03789*
X03241Y03796*
X03234Y03802*
X03226Y03806*
X03222Y03806*
G37*
G36*
X03212D02*
X03207Y03806D01*
X03199Y03802*
X03192Y03796*
X03186Y03789*
X03182Y03781*
X03182Y03776*
X03212*
Y03806*
G37*
G36*
X03251Y03766D02*
X03222D01*
Y03737*
X03226Y03737*
X03234Y03741*
X03241Y03746*
X03247Y03754*
X03251Y03762*
X03251Y03766*
G37*
G36*
X03212D02*
X03182D01*
X03182Y03762*
X03186Y03754*
X03192Y03746*
X03199Y03741*
X03207Y03737*
X03212Y03737*
Y03766*
G37*
G36*
X0162Y03749D02*
X01602D01*
Y0373*
X01606Y03731*
X01614Y03736*
X01619Y03744*
X0162Y03749*
G37*
G36*
X01592D02*
X01573D01*
X01574Y03744*
X01579Y03736*
X01587Y03731*
X01592Y0373*
Y03749*
G37*
G36*
X0511Y03813D02*
X0499D01*
Y03693*
X05005Y03695*
X05024Y03699*
X05042Y03707*
X05059Y03717*
X05074Y0373*
X05087Y03745*
X05097Y03761*
X05105Y0378*
X05109Y03799*
X0511Y03813*
G37*
G36*
X01408D02*
X01289D01*
Y03693*
X01303Y03695*
X01322Y03699*
X0134Y03707*
X01357Y03717*
X01372Y0373*
X01385Y03745*
X01395Y03761*
X01403Y0378*
X01407Y03799*
X01408Y03813*
G37*
G36*
X01279D02*
X01159D01*
X0116Y03799*
X01164Y0378*
X01172Y03761*
X01182Y03745*
X01195Y0373*
X0121Y03717*
X01227Y03707*
X01245Y03699*
X01264Y03695*
X01279Y03693*
Y03813*
G37*
G36*
X0498D02*
X04861D01*
X04862Y03799*
X04866Y0378*
X04874Y03761*
X04884Y03745*
X04897Y0373*
X04912Y03717*
X04929Y03707*
X04947Y03699*
X04966Y03695*
X0498Y03693*
Y03813*
G37*
G36*
X04926Y03477D02*
X04925D01*
X04924Y03477*
X04922Y03477*
X04921Y03476*
X04919Y03476*
X04918Y03476*
X04917Y03475*
X04916Y03474*
X04915Y03474*
X04914Y03473*
X04913Y03473*
X04912Y03472*
X04912Y03472*
X04911Y03471*
X04911Y03471*
X04911Y03471*
X04911Y03471*
X04909Y0347*
X04909Y03468*
X04908Y03467*
X04907Y03466*
X04906Y03465*
X04906Y03463*
X04906Y03462*
X04905Y03461*
X04905Y0346*
X04905Y03459*
X04905Y03458*
X04905Y03457*
X04904Y03456*
Y03456*
Y03456*
Y03455*
X04905Y03453*
X04905Y03451*
X04905Y0345*
X04906Y03448*
X04906Y03447*
X04907Y03446*
X04907Y03446*
X04907Y03445*
X04907Y03445*
X04907Y03445*
Y03445*
X04908Y03443*
X0491Y03442*
X04911Y0344*
X04912Y03439*
X04913Y03438*
X04914Y03438*
X04914Y03438*
X04915Y03437*
X04915Y03437*
X04915*
X04917Y03436*
X04919Y03436*
X0492Y03435*
X04922Y03435*
X04923Y03435*
X04924Y03435*
X04924*
X04925Y03434*
X04925*
X04927Y03435*
X04929Y03435*
X04931Y03435*
X04933Y03436*
X04934Y03436*
X04934Y03437*
X04935Y03437*
X04935Y03437*
X04935Y03437*
X04936Y03437*
X04936*
X04937Y03438*
X04939Y0344*
X0494Y03441*
X04941Y03442*
X04942Y03443*
X04943Y03444*
X04943Y03445*
X04943Y03445*
X04943Y03445*
Y03445*
X04944Y03447*
X04945Y03449*
X04945Y03451*
X04946Y03452*
X04946Y03454*
X04946Y03454*
Y03455*
X04946Y03455*
Y03455*
Y03456*
Y03456*
X04946Y03458*
X04946Y0346*
X04945Y03461*
X04945Y03463*
X04944Y03464*
X04944Y03465*
X04944Y03465*
X04944Y03466*
X04943Y03466*
X04943Y03466*
Y03466*
X04942Y03468*
X04941Y0347*
X0494Y03471*
X04938Y03472*
X04937Y03473*
X04937Y03474*
X04936Y03474*
X04936Y03474*
X04936Y03474*
X04936*
X04934Y03475*
X04932Y03476*
X0493Y03476*
X04929Y03477*
X04927Y03477*
X04927Y03477*
X04926Y03477*
G37*
%LNnixie_board_v2.0-3*%
%LPD*%
G36*
X01297Y04777D02*
Y04392D01*
X01298Y04387*
X01294Y04384*
X01288Y0439*
Y04774*
X0129Y04775*
X01292Y04779*
X01297Y04777*
G37*
G36*
X01253Y04228D02*
X01281D01*
Y04215*
X01263*
Y04187*
Y04161*
Y04136*
Y0411*
Y04084*
X01294*
X01295Y04084*
X01374*
X01378Y04079*
X01378Y04074*
X01379Y04065*
X01382Y04056*
X01388Y04049*
X01573Y03864*
X0158Y03859*
X01585Y03856*
X01584Y03851*
X01559*
X01361Y04049*
X01354Y04055*
X01345Y04058*
X01336Y04059*
X01328*
Y04071*
X01253*
Y04069*
X01236*
Y04102*
Y04197*
Y0423*
X01253*
Y04228*
G37*
G54D13*
X03835Y02996D02*
X03849Y0301D01*
X03835Y0295D02*
Y02996D01*
X0381Y02855D02*
X03835Y0295D01*
X02461Y02853D02*
X02635Y0268D01*
X02433Y02956D02*
X02461Y02853D01*
X0241Y02979D02*
X02433Y02956D01*
X0241Y02979D02*
Y0301D01*
X01742Y02997D02*
X01755Y0301D01*
X01742Y0296D02*
Y02997D01*
X0172Y02871D02*
X01742Y0296D01*
X01755Y0301D02*
X01807D01*
X0172Y02715D02*
Y02871D01*
X03849Y0301D02*
X03902D01*
X0381Y02734D02*
Y02855D01*
X0241Y0301D02*
X02425Y02995D01*
X0381Y02734D02*
X03865Y0268D01*
X02635Y02307D02*
Y0268D01*
Y02307D02*
X02682Y0226D01*
X02751Y02397D02*
X02832Y02316D01*
Y02193D02*
Y02316D01*
Y02193D02*
X02882Y02143D01*
Y02057D02*
Y02143D01*
X04454Y03776D02*
X048D01*
X04117Y05125D02*
X04769D01*
X04087Y05154D02*
X04117Y05125D01*
X04769D02*
X04825Y05068D01*
Y03801*
X048Y03776D02*
X04825Y03801D01*
X01295Y04201D02*
Y04271D01*
X03865Y02297D02*
Y0268D01*
Y02297D02*
X03902Y0226D01*
X0193Y01875D02*
X0197Y01835D01*
X01845Y01875D02*
X0193D01*
X01804Y01834D02*
X01845Y01875D01*
X0291Y01675D02*
X0296Y01725D01*
X02005Y01675D02*
X0291D01*
X0197Y0171D02*
X02005Y01675D01*
X03009Y01647D02*
X0304D01*
X0197Y0171D02*
Y01835D01*
X01804Y01787D02*
Y01834D01*
X0304Y01647D02*
Y01704D01*
X03019Y01725D02*
X0304Y01704D01*
X0296Y01725D02*
X03019D01*
X04777Y0226D02*
X04945D01*
X04985Y02301*
Y02919*
X04894Y0301D02*
X04985Y02919D01*
X04777Y0301D02*
X04894D01*
X0172Y02715D02*
X0177Y02664D01*
Y02297D02*
X01807Y0226D01*
X0177Y02297D02*
Y02664D01*
X01389Y04098D02*
X01413Y04074D01*
X01295Y04098D02*
X01389D01*
X03135Y02848D02*
Y0301D01*
X03245Y02573D02*
Y0301D01*
X03135Y02463D02*
X03245Y02573D01*
G54D24*
X01647Y01787D03*
X01765Y01662D03*
X01844D03*
X01922D03*
X01804Y01787D03*
X01725D03*
X01883D03*
X01686Y01662D03*
G54D45*
X04777Y03119D03*
Y0301D03*
X0241Y03119D03*
Y0301D03*
X01807Y03119D03*
Y0301D03*
X03902Y03119D03*
Y0301D03*
X03245D03*
Y03119D03*
X03135Y0301D03*
Y03119D03*
G54D49*
X01495Y01899D02*
D01*
X0149Y01904*
X01484Y01908*
X01478Y01913*
X01472Y01916*
X01466Y01919*
X0146Y01922*
X01453Y01924*
X01446Y01926*
X0144Y01927*
X01433Y01928*
X01426Y01929*
X01424Y01929*
X01525Y01716D02*
D01*
X01525Y01709*
X01525Y01702*
X01527Y01695*
X01528Y01688*
X01531Y01682*
X01533Y01675*
X01536Y01669*
X0154Y01663*
X01544Y01657*
X01548Y01652*
X01553Y01646*
X01554Y01645*
X0157Y01629D02*
D01*
X01575Y01624*
X01581Y0162*
X01586Y01616*
X01592Y01612*
X01599Y01609*
X01605Y01606*
X01612Y01604*
X01618Y01602*
X01625Y01601*
X01632Y016*
X01639Y016*
X01641Y016*
X01525Y01828D02*
D01*
X01524Y01835*
X01524Y01842*
X01522Y01849*
X01521Y01856*
X01518Y01862*
X01516Y01869*
X01513Y01875*
X01509Y01881*
X01505Y01887*
X01501Y01892*
X01496Y01898*
X01495Y01899*
X01284Y01929D02*
X01424D01*
X01495Y01899D02*
X01495Y01899D01*
X01554Y01645D02*
X0157Y01629D01*
X01525Y01716D02*
Y01828D01*
X01641Y016D02*
X01725D01*
Y01662D02*
Y01787D01*
Y016D02*
Y01662D01*
X01765*
X01725Y01514D02*
Y016D01*
Y01514D02*
X01765Y01475D01*
X0329*
X03442Y05207D02*
X03475Y05175D01*
X01604Y05207D02*
X03442D01*
X0329Y01475D02*
X03335Y0152D01*
Y01705*
X03315Y01725D02*
X03335Y01705D01*
X03085Y01725D02*
X03315D01*
X03072Y01712D02*
X03085Y01725D01*
X03072Y01647D02*
Y01712D01*
X01572Y05175D02*
X01604Y05207D01*
G54D50*
X02367Y02889D02*
X02413Y02843D01*
Y02462D02*
Y02843D01*
Y02462D02*
X02605Y02271D01*
X0454Y02035D02*
Y02272D01*
X04279Y01774D02*
X0454Y02035D01*
Y02272D02*
X04842Y02575D01*
X02605Y02095D02*
Y02271D01*
Y02095D02*
X02674Y02025D01*
X02882*
X02751Y02575D02*
X02815D01*
X02882Y02507*
Y02248D02*
Y02507D01*
Y02248D02*
X02977Y02152D01*
X04265Y02428D02*
X04321Y02485D01*
X04265Y01972D02*
Y02428D01*
X0416Y01868D02*
X04265Y01972D01*
X03387Y01868D02*
X0416D01*
X04322Y01957D02*
Y02326D01*
X04202Y01837D02*
X04322Y01957D01*
X03387Y01837D02*
X04202D01*
X04322Y02326D02*
X04393Y02397D01*
X04732Y02637D02*
X04846Y02752D01*
X04732Y02532D02*
Y02637D01*
X04663Y02463D02*
X04732Y02532D01*
X04556Y02463D02*
X04663D01*
X04535Y02485D02*
X04556Y02463D01*
X04321Y02485D02*
X04535D01*
X0157Y05019D02*
X0159D01*
X0154Y04989D02*
X0157Y05019D01*
X04017Y04957D02*
Y05015D01*
X03979Y05053D02*
X04017Y05015D01*
X03162Y05053D02*
X03979D01*
X01145Y04375D02*
Y04684D01*
X01296Y04837D02*
X0131Y04823D01*
Y04392D02*
Y04823D01*
Y04392D02*
X01326Y04376D01*
X0139D02*
X01425Y04341D01*
X01326Y04376D02*
X0139D01*
X01425Y04146D02*
Y04341D01*
X01402Y04124D02*
X01425Y04146D01*
X01295Y04124D02*
X01402D01*
X01276Y04385D02*
Y0479D01*
Y04385D02*
X01312Y0435D01*
X02513Y04826D02*
Y04835D01*
X02399Y04713D02*
X02513Y04826D01*
Y04835D02*
X02521D01*
X0154Y04114D02*
Y04989D01*
Y04114D02*
X01558Y04095D01*
X01566*
X0157Y04164D02*
Y04664D01*
X01635Y04729*
X02918Y02276D02*
Y02676D01*
X02842Y02752D02*
X02918Y02676D01*
X02751Y02752D02*
X02842D01*
X0406Y0291D02*
X04135Y02985D01*
X0406Y0212D02*
Y0291D01*
X04135Y02985D02*
X0458D01*
X04174Y02889D02*
X04462D01*
X041Y02815D02*
X04174Y02889D01*
X041Y0209D02*
Y02815D01*
X02137Y01837D02*
X02882D01*
X0202Y01955D02*
X02137Y01837D01*
X01705Y01955D02*
X0202D01*
X0204Y01994D02*
X02166Y01868D01*
X01955Y01994D02*
X0204D01*
X02166Y01868D02*
X02882D01*
X02196Y019D02*
X02882D01*
X0207Y02026D02*
X02196Y019D01*
X0207Y02026D02*
Y0272D01*
X02226Y01931D02*
X02882D01*
X02125Y02032D02*
X02226Y01931D01*
X02125Y02032D02*
Y0255D01*
X02252Y01962D02*
X02882D01*
X0221Y02005D02*
X02252Y01962D01*
X0221Y02005D02*
Y0237D01*
X014Y02374D02*
X01423Y02397D01*
X014Y02208D02*
Y02374D01*
X03375Y02536D02*
X03413Y02575D01*
X03375Y02345D02*
Y02536D01*
X03229Y022D02*
X03375Y02345D01*
X03305Y02365D02*
Y0283D01*
X03166Y02226D02*
X03305Y02365D01*
Y0283D02*
X03364Y02889D01*
X03413Y02575D02*
X03518D01*
X0334Y02355D02*
Y0272D01*
X03197Y02212D02*
X0334Y02355D01*
Y0272D02*
X03372Y02752D01*
X02918Y02276D02*
X03009Y02185D01*
Y02152D02*
Y02185D01*
X03472Y02397D02*
X03518D01*
X0326Y02185D02*
X03472Y02397D01*
X0326Y02152D02*
Y02185D01*
X0304Y02152D02*
Y02199D01*
X0296Y0228D02*
X0304Y02199D01*
X0296Y0228D02*
Y02795D01*
X03197Y02152D02*
Y02212D01*
X03103Y02177D02*
Y02226D01*
X0304Y02289D02*
X03103Y02226D01*
X0304Y02289D02*
Y02477D01*
X03166Y02152D02*
Y02226D01*
X0458Y02985D02*
X0462Y02945D01*
Y02929D02*
Y02945D01*
X03965Y02025D02*
X0406Y0212D01*
X03387Y02025D02*
X03965D01*
X04004Y01994D02*
X041Y0209D01*
X03387Y01994D02*
X04004D01*
X0414Y02055D02*
Y0268D01*
X04047Y01962D02*
X0414Y02055D01*
X03387Y01962D02*
X04047D01*
X04185Y02031D02*
Y0261D01*
X04085Y01931D02*
X04185Y02031D01*
X03387Y01931D02*
X04085D01*
X04225Y02D02*
Y02535D01*
X04125Y019D02*
X04225Y02D01*
X03387Y019D02*
X04125D01*
X04385Y0195D02*
Y02182D01*
X0424Y01805D02*
X04385Y0195D01*
X03387Y01805D02*
X0424D01*
X03387Y01774D02*
X04279D01*
X04322Y01742D02*
X047Y0212D01*
X03387Y01742D02*
X04322D01*
X047Y0212D02*
Y0234D01*
X03971Y02397D02*
X0402Y02349D01*
Y0215D02*
Y02349D01*
X03927Y02057D02*
X0402Y0215D01*
X04757Y02397D02*
X04846D01*
X047Y0234D02*
X04757Y02397D01*
X04842Y02575D02*
X04846D01*
X04385Y02182D02*
X04462Y0226D01*
X04265Y02575D02*
X04393D01*
X04225Y02535D02*
X04265Y02575D01*
X04212Y02752D02*
X04393D01*
X0414Y0268D02*
X04212Y02752D01*
X04557Y0267D02*
X04777Y02889D01*
X04245Y0267D02*
X04557D01*
X04185Y0261D02*
X04245Y0267D01*
X03387Y02057D02*
X03927D01*
X03229Y02152D02*
Y022D01*
X0348Y02152D02*
X03587Y0226D01*
X03292Y02152D02*
X0348D01*
X03372Y02752D02*
X03518D01*
X03364Y02889D02*
X03587D01*
X02525Y02929D02*
X0258Y02985D01*
X0291*
X03Y02895*
Y02285D02*
Y02895D01*
Y02285D02*
X03072Y02213D01*
Y02152D02*
Y02213D01*
X02682Y02889D02*
X02865D01*
X0296Y02795*
X02405Y01994D02*
X02882D01*
X02367Y02032D02*
X02405Y01994D01*
X02367Y02032D02*
Y0226D01*
X02237Y02397D02*
X02298D01*
X0221Y0237D02*
X02237Y02397D01*
X02125Y0255D02*
X0215Y02575D01*
X02298*
X02102Y02752D02*
X02298D01*
X0207Y0272D02*
X02102Y02752D01*
X01915Y02034D02*
X01955Y01994D01*
X01915Y02034D02*
Y02359D01*
X01876Y02397D02*
X01915Y02359D01*
X014Y02208D02*
X01688Y0192D01*
X0199*
X01492Y02167D02*
Y0226D01*
Y02167D02*
X01705Y01955D01*
X02104Y01805D02*
X02872D01*
X0199Y0192D02*
X02104Y01805D01*
X03115Y01525D02*
X03135Y01545D01*
X0187Y01525D02*
X03115D01*
X01844Y01551D02*
X0187Y01525D01*
X03103Y01595D02*
Y01647D01*
X03082Y01575D02*
X03103Y01595D01*
X01905Y01575D02*
X03082D01*
X01883Y01596D02*
X01905Y01575D01*
X01883Y01596D02*
Y01787D01*
X01922Y01652D02*
X01949Y01625D01*
X01922Y01652D02*
Y01662D01*
X02977Y0163D02*
Y01647D01*
X02972Y01625D02*
X02977Y0163D01*
X01949Y01625D02*
X02972D01*
X01844Y01551D02*
Y01662D01*
X03135Y01545D02*
Y01647D01*
X02009Y04698D02*
X02024Y04713D01*
X02009Y04698D02*
X0201Y04698D01*
Y043D02*
Y04698D01*
X01295Y0415D02*
X01388D01*
X014Y04161*
X03135Y02572D02*
Y02651D01*
X0304Y02477D02*
X03135Y02572D01*
X01691Y04466D02*
X0173Y04505D01*
X01691Y04566D02*
Y04821D01*
X02439Y04197D02*
X0249Y04147D01*
X02181Y04197D02*
X02439D01*
X02024Y04713D02*
X02399D01*
X01312Y0435D02*
X01377D01*
X014Y04161D02*
Y04327D01*
X01377Y0435D02*
X014Y04327D01*
X01276Y04837D02*
X01296D01*
X02152Y05039D02*
X02935D01*
X03135Y0508D02*
X03162Y05053D01*
X0207Y0508D02*
X03135D01*
X01691Y04821D02*
X0173Y0486D01*
X01839Y04859D02*
X0207D01*
X0173Y0475D02*
X01839Y04859D01*
X0173Y04505D02*
Y0475D01*
X03162Y0512D02*
X0319Y05092D01*
X01818Y0512D02*
X03162D01*
X01936Y04241D02*
X02137D01*
X0177D02*
X01936D01*
Y0465*
X02137Y04241D02*
X02181Y04197D01*
X01916Y0467D02*
X01936Y0465D01*
X019Y0467D02*
X01916D01*
X01871Y04623D02*
X019D01*
X01847Y04599D02*
X01871Y04623D01*
X01847Y04464D02*
Y04599D01*
X03135Y02177D02*
Y02266D01*
G54D99*
X0119Y03998D02*
X01216Y04024D01*
X0129*
X0119Y04197D02*
Y04301D01*
Y04102D02*
Y04197D01*
Y03998D02*
Y04102D01*
Y04301D02*
X01216Y04275D01*
X0129*
G54D100*
X04919Y03275D02*
D01*
X04914Y0328*
X04908Y03284*
X04903Y03288*
X04897Y03292*
X0489Y03295*
X04884Y03298*
X04877Y033*
X04871Y03302*
X04864Y03303*
X04857Y03304*
X0485Y03304*
X04848Y03305*
X0509Y03063D02*
D01*
X0509Y0307*
X05089Y03077*
X05088Y03084*
X05086Y0309*
X05084Y03097*
X05081Y03103*
X05078Y0311*
X05075Y03116*
X05071Y03122*
X05066Y03127*
X05062Y03132*
X05061Y03133*
Y02004D02*
D01*
X05065Y02009*
X0507Y02014*
X05074Y0202*
X05077Y02026*
X0508Y02032*
X05083Y02039*
X05085Y02045*
X05087Y02052*
X05089Y02059*
X05089Y02066*
X0509Y02073*
X0509Y02074*
X04956Y01501D02*
D01*
X04961Y01506*
X04965Y01512*
X04969Y01517*
X04973Y01523*
X04976Y0153*
X04979Y01536*
X04981Y01543*
X04983Y01549*
X04984Y01556*
X04985Y01563*
X04985Y0157*
X04985Y01572*
X04818Y01405D02*
D01*
X04825Y01405*
X04832Y01405*
X04839Y01407*
X04846Y01408*
X04852Y01411*
X04859Y01413*
X04865Y01416*
X04871Y0142*
X04877Y01424*
X04882Y01428*
X04888Y01433*
X04889Y01434*
X01421Y03305D02*
D01*
X01414Y03304*
X01407Y03304*
X014Y03302*
X01393Y03301*
X01387Y03298*
X0138Y03296*
X01374Y03293*
X01368Y03289*
X01362Y03285*
X01357Y03281*
X01351Y03276*
X0135Y03275*
X01208Y03133D02*
D01*
X01204Y03128*
X01199Y03123*
X01195Y03117*
X01192Y03111*
X01189Y03105*
X01186Y03099*
X01184Y03092*
X01182Y03085*
X0118Y03078*
X0118Y03071*
X01179Y03064*
X01179Y03063*
Y02074D02*
D01*
X01179Y02067*
X0118Y0206*
X01181Y02054*
X01183Y02047*
X01185Y0204*
X01188Y02034*
X01191Y02027*
X01194Y02021*
X01198Y02016*
X01203Y0201*
X01207Y02005*
X01208Y02004*
X0138Y01434D02*
D01*
X01385Y01429*
X01391Y01425*
X01396Y01421*
X01402Y01417*
X01409Y01414*
X01415Y01411*
X01422Y01409*
X01428Y01407*
X01435Y01406*
X01442Y01405*
X01449Y01405*
X01451Y01405*
X01284Y01572D02*
D01*
X01284Y01565*
X01284Y01558*
X01286Y01551*
X01287Y01544*
X0129Y01538*
X01292Y01531*
X01295Y01525*
X01299Y01519*
X01303Y01513*
X01307Y01508*
X01312Y01502*
X01313Y01501*
X01208Y02004D02*
X01284Y01929D01*
Y01572D02*
Y01929D01*
X04985Y03209D02*
X05061Y03133D01*
X04985Y01929D02*
X05061Y02004D01*
X04919Y03275D02*
X04985Y03209D01*
X04889Y01434D02*
X04956Y01501D01*
X01421Y03305D02*
X04848D01*
X01284Y03209D02*
X0135Y03275D01*
X01179Y02074D02*
Y03063D01*
X01451Y01405D02*
X04818D01*
X01313Y01501D02*
X0138Y01434D01*
X04985Y01572D02*
Y01929D01*
X013Y02202D02*
Y02905D01*
Y02202D02*
X01647Y01854D01*
X013Y02905D02*
X01513Y03119D01*
X0241D02*
X03135D01*
X01807D02*
X0241D01*
X0509Y02074D02*
Y03063D01*
X01208Y03133D02*
X01284Y03209D01*
X01647Y01787D02*
Y01854D01*
X01513Y03119D02*
X01807D01*
X03902D02*
X04777D01*
X03245D02*
X03902D01*
X03135D02*
X03245D01*
G54D101*
X02941Y03945D02*
Y04121D01*
X02886Y0389D02*
X02941Y03945D01*
X01598Y0389D02*
X02886D01*
X02885Y03816D02*
X0293Y03771D01*
X01544Y03816D02*
X02885D01*
X01336Y04024D02*
X01544Y03816D01*
X01413Y04074D02*
X01598Y0389D01*
X0129Y04024D02*
X01336D01*
G54D107*
X03902Y0226D03*
X03971Y02397D03*
Y02575D03*
Y02752D03*
X03902Y02889D03*
X03745Y02929D03*
X03587Y02889D03*
X03518Y02752D03*
Y02575D03*
Y02397D03*
X03587Y0226D03*
X03745Y0222D03*
X02525D03*
X02367Y0226D03*
X02298Y02397D03*
Y02575D03*
Y02752D03*
X02367Y02889D03*
X02525Y02929D03*
X02682Y02889D03*
X02751Y02752D03*
Y02575D03*
Y02397D03*
X02682Y0226D03*
X0462Y0222D03*
X04462Y0226D03*
X04393Y02397D03*
Y02575D03*
Y02752D03*
X04462Y02889D03*
X0462Y02929D03*
X04777Y02889D03*
X04846Y02752D03*
Y02575D03*
Y02397D03*
X04777Y0226D03*
X0165Y0222D03*
X01492Y0226D03*
X01423Y02397D03*
Y02575D03*
Y02752D03*
X01492Y02889D03*
X0165Y02929D03*
X01807Y02889D03*
X01876Y02752D03*
Y02575D03*
Y02397D03*
X01807Y0226D03*
G54D108*
X0259Y04247D03*
X0249D03*
X0259Y04147D03*
X0239Y04247D03*
X0249Y04147D03*
X0229D03*
X0239D03*
X0229Y04247D03*
G54D109*
X03135Y02848D03*
Y02651D03*
Y02463D03*
Y02266D03*
G54D110*
X03135Y0275D03*
Y02365D03*
G54D111*
X01284Y05098D03*
X04985Y03818D03*
X01284D03*
X04985Y05098D03*
Y03209D03*
X01284Y01929D03*
X04985D03*
X01284Y03209D03*
G54D112*
X0149Y04129D03*
X04118Y05215D03*
X04454Y03776D03*
X0159Y05019D03*
X04442Y05079D03*
X04087Y05154D03*
X03475Y05175D03*
X04653Y039D03*
Y03827D03*
X01145Y04375D03*
Y04684D03*
X01597Y03754D03*
X01417Y04741D03*
X02513Y04835D03*
X0197Y04755D03*
X01635Y04598D03*
X0157Y04095D03*
Y04164D03*
X01635Y04729D03*
X0167Y04036D03*
X0201Y043D03*
X02772Y04055D03*
X01691Y04466D03*
Y04566D03*
X01427Y04425D03*
X0135Y046D03*
X02767Y0495D03*
X01276Y0479D03*
Y04837D03*
X0201Y04112D03*
X02935Y05039D03*
X02152D03*
X0207Y0508D03*
Y04859D03*
X0173Y0486D03*
X01818Y0512D03*
X01847Y04464D03*
X019Y04623D03*
Y0467D03*
X0177Y04241D03*
X0164D03*
X0319Y05092D03*
X02875Y04372D03*
X0244Y03971D03*
X03122Y05023D03*
X03775Y03935D03*
X04017Y04957D03*
X02248Y04514D03*
G54D113*
X04768Y04727D03*
X04102Y03958D03*
X02941Y04121D03*
X03217Y03771D03*
X0293D03*
X01572Y05175D03*
G54D114*
X02977Y02152D03*
X03009D03*
X0304D03*
X03072D03*
X03103D03*
X03135D03*
X03166D03*
X03197D03*
X03229D03*
X0326D03*
X03292D03*
Y01647D03*
X0326D03*
X03229D03*
X03197D03*
X03166D03*
X03135D03*
X03103D03*
X03072D03*
X0304D03*
X03009D03*
X02977D03*
G54D115*
X03387Y02057D03*
Y02025D03*
Y01994D03*
Y01962D03*
Y01931D03*
Y019D03*
Y01868D03*
Y01837D03*
Y01805D03*
Y01774D03*
Y01742D03*
X02882D03*
Y01774D03*
Y01805D03*
Y01837D03*
Y01868D03*
Y019D03*
Y01931D03*
Y01962D03*
Y01994D03*
Y02025D03*
Y02057D03*
G54D116*
X0129Y04024D03*
Y04275D03*
G54D117*
X01295Y0415D03*
Y04201D03*
Y04175D03*
Y04124D03*
Y04098D03*
G54D118*
X0119Y04301D03*
Y04197D03*
Y04102D03*
Y03998D03*
G54D119*
X02031Y03515D03*
M02*