%FSTAX23Y23*%
%MOIN*%
%SFA1B1*%

%IPPOS*%
%ADD16R,0.027559X0.037401*%
%ADD17R,0.051181X0.078740*%
%ADD18R,0.078740X0.078740*%
%ADD19R,0.173228X0.092520*%
%ADD20R,0.047244X0.116142*%
%ADD21R,0.222441X0.263779*%
%ADD22R,0.157480X0.078740*%
%ADD23R,0.084645X0.098425*%
%ADD24R,0.023622X0.072835*%
%ADD25O,0.064960X0.015748*%
%ADD26R,0.023622X0.019685*%
%ADD27R,0.062992X0.039370*%
%ADD28R,0.037401X0.027559*%
%ADD29O,0.049606X0.014173*%
%ADD30O,0.059055X0.023622*%
%ADD31R,0.031496X0.025591*%
%ADD32R,0.019685X0.023622*%
%ADD33R,0.037401X0.055118*%
%ADD34R,0.055118X0.041339*%
%ADD35O,0.055118X0.015748*%
%ADD36R,0.049212X0.068898*%
%ADD37R,0.031496X0.011811*%
%ADD38R,0.058661X0.094488*%
%ADD39R,0.098425X0.084645*%
%ADD40O,0.019685X0.015748*%
%ADD41O,0.015748X0.019685*%
%ADD42R,0.104330X0.104330*%
%ADD43R,0.151575X0.216535*%
%ADD44R,0.096457X0.068898*%
%ADD45R,0.068898X0.049212*%
%ADD46R,0.127952X0.084645*%
%ADD47R,0.039370X0.084645*%
%ADD48R,0.165354X0.125984*%
%LNnixie_board_v2.0-1*%
%LPD*%
G54D16*
X04564Y03827D03*
X04615D03*
X04564Y039D03*
X04615D03*
X04329Y052D03*
X0438D03*
X02371Y04758D03*
X02422D03*
X01898Y04375D03*
X01847D03*
X01735Y04241D03*
X01684D03*
X01855D03*
X01804D03*
X0192Y04878D03*
X01869D03*
X0192Y04947D03*
X01869D03*
X0192Y05016D03*
X01869D03*
X01295Y0489D03*
X01244D03*
X01478Y04485D03*
X01427D03*
X01478Y04558D03*
X01427D03*
X0438Y05073D03*
X04329D03*
X0438Y0501D03*
X04329D03*
X04194Y05154D03*
X04143D03*
X03964Y04992D03*
X03913D03*
X03964Y05062D03*
X03913D03*
X03964Y05132D03*
X03913D03*
X02569Y03768D03*
X02518D03*
X02569Y03831D03*
X02518D03*
X02991Y04372D03*
X0294D03*
X02991Y04312D03*
X0294D03*
G54D17*
X0472Y05054D03*
X04629D03*
G54D18*
X04675Y05211D03*
G54D19*
X04916Y04727D03*
X0458D03*
G54D20*
X04128Y04171D03*
X04308D03*
G54D21*
X04218Y04425D03*
G54D22*
X03045Y0389D03*
Y03771D03*
X0332Y0389D03*
Y03771D03*
G54D23*
X04392Y03875D03*
X04144D03*
G54D24*
X01686Y03922D03*
X01883Y03797D03*
X01725D03*
X01804D03*
X01922Y03922D03*
X01844D03*
X01765D03*
X01647Y03797D03*
G54D25*
X0177Y04483D03*
Y04457D03*
Y04559D03*
Y04508D03*
Y04534D03*
Y04636D03*
Y04585D03*
Y04611D03*
Y04662D03*
Y04687D03*
Y04764D03*
Y04713D03*
Y04738D03*
Y0479D03*
X02055Y04457D03*
Y04483D03*
Y04559D03*
Y04508D03*
Y04534D03*
Y04585D03*
Y04611D03*
Y04662D03*
Y04713D03*
Y04636D03*
Y04687D03*
Y0479D03*
Y04738D03*
Y04764D03*
G54D26*
X04325Y05137D03*
X04384D03*
X02573Y0389D03*
X02514D03*
G54D27*
X0156Y04561D03*
Y04482D03*
G54D28*
X01643Y04547D03*
Y04496D03*
X01336Y04486D03*
Y04435D03*
X02218Y04598D03*
Y04547D03*
X02159Y04598D03*
Y04547D03*
X02152Y04803D03*
Y04752D03*
X01684Y05175D03*
Y05124D03*
X01619Y05175D03*
Y05124D03*
X01525Y05175D03*
Y05124D03*
X0146Y05175D03*
Y05124D03*
X04825Y05054D03*
Y05003D03*
X03229Y05194D03*
Y05142D03*
X0215Y03826D03*
Y03775D03*
Y03926D03*
Y03875D03*
G54D29*
X01944Y04189D03*
Y04163D03*
Y04112D03*
Y04138D03*
Y04087D03*
Y04036D03*
Y04061D03*
Y0401D03*
X01715Y04189D03*
Y04087D03*
Y04163D03*
Y04138D03*
Y04061D03*
Y04112D03*
Y0401D03*
Y04036D03*
G54D30*
X02503Y04698D03*
Y04648D03*
Y04598D03*
Y04548D03*
X02286D03*
Y04698D03*
Y04648D03*
Y04598D03*
X02439Y03926D03*
Y03876D03*
Y03826D03*
Y03776D03*
X02223D03*
Y03926D03*
Y03876D03*
Y03826D03*
G54D31*
X0119Y04486D03*
Y04433D03*
X01143Y04486D03*
Y04433D03*
G54D32*
X0156Y04811D03*
Y04752D03*
G54D33*
X01626Y04888D03*
X01553D03*
X01626Y04968D03*
X01553D03*
X02972Y04019D03*
X03045D03*
G54D34*
X02107Y05235D03*
Y05178D03*
X01966Y05235D03*
Y05178D03*
X027Y05235D03*
Y05178D03*
X02558Y05235D03*
Y05178D03*
X02403Y05235D03*
Y05178D03*
X02262Y05235D03*
Y05178D03*
G54D35*
X04256Y05088D03*
Y05062D03*
Y05037D03*
Y05011D03*
X04083D03*
Y05088D03*
Y05062D03*
Y05037D03*
G54D36*
X04272Y04036D03*
X04164D03*
X04478Y04888D03*
X0437D03*
G54D37*
X03145Y05169D03*
Y05117D03*
Y05143D03*
Y05092D03*
X03039D03*
Y05169D03*
Y05117D03*
Y05143D03*
G54D38*
X03092Y0513D03*
G54D39*
X02869Y05192D03*
Y04944D03*
G54D40*
X01495Y04888D03*
Y04862D03*
Y04811D03*
Y04837D03*
X01355Y04811D03*
Y04888D03*
Y04837D03*
Y04862D03*
G54D41*
X01464Y04919D03*
X01438D03*
X01464Y0478D03*
X01438D03*
X01413D03*
X01387Y04919D03*
X01413D03*
X01387Y0478D03*
G54D42*
X01425Y0485D03*
G54D43*
X04529Y04213D03*
X0492D03*
G54D44*
X04387Y04727D03*
X04218D03*
G54D45*
X04513Y05087D03*
Y04979D03*
G54D46*
X03009Y04697D03*
G54D47*
X03099Y04467D03*
X02918D03*
X03009D03*
G54D48*
X03626Y05202D03*
Y03922D03*
M02*